<svg viewBox="0 0 800 700" xmlns="http://www.w3.org/2000/svg">
  <defs>
    <!-- Drop Shadow Filter -->
    <filter id="dropshadow" x="-20%" y="-20%" width="140%" height="140%">
      <feGaussianBlur in="SourceAlpha" stdDeviation="3"/>
      <feOffset dx="2" dy="2" result="shadow"/>
      <feColorMatrix in="shadow" type="matrix" values="0 0 0 0 0   0 0 0 0 0   0 0 0 0 0   0 0 0 0.2 0"/>
      <feMerge>
        <feMergeNode/>
        <feMergeNode in="SourceGraphic"/>
      </feMerge>
    </filter>

    <!-- Arrow Marker -->
    <marker id="arrow" markerWidth="10" markerHeight="10" refX="8" refY="5" orient="auto-start-reverse" markerUnits="strokeWidth">
      <path d="M 0 0 L 10 5 L 0 10 z" fill="#666"/>
    </marker>
  </defs>

  <rect x="0" y="0" width="800" height="700" fill="#f8f9fa"/>

  <!-- Styles for components -->
  <style>
    .component-box {
      fill: #4A90D9; /* Default blue */
      stroke: #3a7bbd;
      stroke-width: 1;
      filter: url(#dropshadow);
      rx: 8;
      ry: 8;
    }
    .component-text {
      font-family: "Arial, sans-serif";
      font-size: 16px;
      fill: #fff;
      text-anchor: middle;
      dominant-baseline: middle;
      pointer-events: none;
    }
    .line {
      stroke: #666;
      stroke-width: 2;
      fill: none;
      marker-end: url(#arrow);
    }
  </style>

  <!-- Components -->

  <!-- User -->
  <rect class="component-box" x="325" y="50" width="150" height="60" fill="#4A90D9"/>
  <text class="component-text" x="400" y="80">User</text>

  <!-- Load Balancer -->
  <rect class="component-box" x="325" y="150" width="150" height="60" fill="#50C878"/>
  <text class="component-text" x="400" y="180">Load Balancer</text>

  <!-- Web/App Servers -->
  <rect class="component-box" x="100" y="250" width="150" height="60" fill="#FFD93D"/>
  <text class="component-text" x="175" y="280" fill="#333">Web Server 1</text>

  <rect class="component-box" x="325" y="250" width="150" height="60" fill="#FFD93D"/>
  <text class="component-text" x="400" y="280" fill="#333">Web Server 2</text>

  <rect class="component-box" x="550" y="250" width="150" height="60" fill="#FFD93D"/>
  <text class="component-text" x="625" y="280" fill="#333">Web Server 3</text>

  <!-- Database -->
  <rect class="component-box" x="100" y="400" width="150" height="60" fill="#6C5CE7"/>
  <text class="component-text" x="175" y="430">Database</text>

  <!-- Cache -->
  <rect class="component-box" x="550" y="400" width="150" height="60" fill="#FF6B6B"/>
  <text class="component-text" x="625" y="430">Cache</text>

  <!-- External Services -->
  <rect class="component-box" x="325" y="550" width="150" height="60" fill="#4A90D9"/>
  <text class="component-text" x="400" y="580">External Services</text>

  <!-- Connections -->

  <!-- User to Load Balancer -->
  <line class="line" x1="400" y1="110" x2="400" y2="150"/>

  <!-- Load Balancer to Web Servers -->
  <path class="line" d="M400,210 L400,230 L175,230 L175,250"/>
  <path class="line" d="M400,210 L400,250"/>
  <path class="line" d="M400,210 L400,230 L625,230 L625,250"/>

  <!-- Web Servers to Database -->
  <path class="line" d="M175,310 L175,400"/>
  <path class="line" d="M400,310 L400,350 L175,350 L175,400"/>
  <path class="line" d="M625,310 L625,350 L175,350 L175,400"/>

  <!-- Web Servers to Cache -->
  <path class="line" d="M175,310 L175,350 L625,350 L625,400"/>
  <path class="line" d="M400,310 L400,350 L625,350 L625,400"/>
  <path class="line" d="M625,310 L625,400"/>

  <!-- Web Servers to External Services -->
  <path class="line" d="M175,310 L175,520 L400,520 L400,550"/>
  <path class="line" d="M400,310 L400,550"/>
  <path class="line" d="M625,310 L625,520 L400,520 L400,550"/>

</svg>