<svg xmlns="http://www.w3.org/2000/svg" viewBox="0 0 900 520">
  <defs>
    <linearGradient id="bg" x1="0%" y1="0%" x2="100%" y2="100%">
      <stop offset="0%" style="stop-color:#0f0c29"/>
      <stop offset="50%" style="stop-color:#302b63"/>
      <stop offset="100%" style="stop-color:#24243e"/>
    </linearGradient>
  </defs>
  <rect width="900" height="520" fill="url(#bg)"/>
  <text x="450" y="42" text-anchor="middle" font-family="Segoe UI" font-size="24" font-weight="bold" fill="#ffffff">Personal &amp; Organizational Security Checklist</text>
  <line x1="260" y1="56" x2="640" y2="56" stroke="#4facfe" stroke-width="2"/>
  <text x="225" y="90" text-anchor="middle" font-family="Segoe UI" font-size="18" font-weight="bold" fill="#69f0ae">Personal Security</text>
  <rect x="30" y="105" width="390" height="42" rx="8" fill="#1a1a3e" stroke="#69f0ae" stroke-width="1"/>
  <text x="55" y="131" font-family="Segoe UI" font-size="16" fill="#69f0ae">☑</text>
  <text x="80" y="131" font-family="Segoe UI" font-size="13" fill="#e0e0e0">Verify URLs before clicking suspicious links</text>
  <rect x="30" y="155" width="390" height="42" rx="8" fill="#1a1a3e" stroke="#69f0ae" stroke-width="1"/>
  <text x="55" y="181" font-family="Segoe UI" font-size="16" fill="#69f0ae">☑</text>
  <text x="80" y="181" font-family="Segoe UI" font-size="13" fill="#e0e0e0">Enable 2FA on all accounts</text>
  <rect x="30" y="205" width="390" height="42" rx="8" fill="#1a1a3e" stroke="#69f0ae" stroke-width="1"/>
  <text x="55" y="231" font-family="Segoe UI" font-size="16" fill="#69f0ae">☑</text>
  <text x="80" y="231" font-family="Segoe UI" font-size="13" fill="#e0e0e0">Verify sources &amp; fact-check before sharing</text>
  <rect x="30" y="255" width="390" height="42" rx="8" fill="#1a1a3e" stroke="#69f0ae" stroke-width="1"/>
  <text x="55" y="281" font-family="Segoe UI" font-size="16" fill="#69f0ae">☑</text>
  <text x="80" y="281" font-family="Segoe UI" font-size="13" fill="#e0e0e0">Use a password manager (unique passwords)</text>
  <rect x="30" y="305" width="390" height="42" rx="8" fill="#1a1a3e" stroke="#69f0ae" stroke-width="1"/>
  <text x="55" y="331" font-family="Segoe UI" font-size="16" fill="#69f0ae">☑</text>
  <text x="80" y="331" font-family="Segoe UI" font-size="13" fill="#e0e0e0">Minimize personal info exposure on social media</text>
  <rect x="30" y="355" width="390" height="42" rx="8" fill="#1a1a3e" stroke="#69f0ae" stroke-width="1"/>
  <text x="55" y="381" font-family="Segoe UI" font-size="16" fill="#69f0ae">☑</text>
  <text x="80" y="381" font-family="Segoe UI" font-size="13" fill="#e0e0e0">Don't react immediately to urgency/fear tactics</text>
  <rect x="30" y="405" width="390" height="42" rx="8" fill="#1a1a3e" stroke="#69f0ae" stroke-width="1"/>
  <text x="55" y="431" font-family="Segoe UI" font-size="16" fill="#69f0ae">☑</text>
  <text x="80" y="431" font-family="Segoe UI" font-size="13" fill="#e0e0e0">Keep software &amp; OS up to date</text>
  <text x="670" y="90" text-anchor="middle" font-family="Segoe UI" font-size="18" font-weight="bold" fill="#4facfe">Organizational Security</text>
  <rect x="480" y="105" width="390" height="42" rx="8" fill="#1a1a3e" stroke="#4facfe" stroke-width="1"/>
  <text x="505" y="131" font-family="Segoe UI" font-size="16" fill="#4facfe">☑</text>
  <text x="530" y="131" font-family="Segoe UI" font-size="13" fill="#e0e0e0">Conduct regular security awareness training</text>
  <rect x="480" y="155" width="390" height="42" rx="8" fill="#1a1a3e" stroke="#4facfe" stroke-width="1"/>
  <text x="505" y="181" font-family="Segoe UI" font-size="16" fill="#4facfe">☑</text>
  <text x="530" y="181" font-family="Segoe UI" font-size="13" fill="#e0e0e0">Run quarterly phishing simulation drills</text>
  <rect x="480" y="205" width="390" height="42" rx="8" fill="#1a1a3e" stroke="#4facfe" stroke-width="1"/>
  <text x="505" y="231" font-family="Segoe UI" font-size="16" fill="#4facfe">☑</text>
  <text x="530" y="231" font-family="Segoe UI" font-size="13" fill="#e0e0e0">Deploy email security gateway</text>
  <rect x="480" y="255" width="390" height="42" rx="8" fill="#1a1a3e" stroke="#4facfe" stroke-width="1"/>
  <text x="505" y="281" font-family="Segoe UI" font-size="16" fill="#4facfe">☑</text>
  <text x="530" y="281" font-family="Segoe UI" font-size="13" fill="#e0e0e0">Adopt Zero Trust security model</text>
  <rect x="480" y="305" width="390" height="42" rx="8" fill="#1a1a3e" stroke="#4facfe" stroke-width="1"/>
  <text x="505" y="331" font-family="Segoe UI" font-size="16" fill="#4facfe">☑</text>
  <text x="530" y="331" font-family="Segoe UI" font-size="13" fill="#e0e0e0">Establish &amp; update Incident Response Plan</text>
  <rect x="480" y="355" width="390" height="42" rx="8" fill="#1a1a3e" stroke="#4facfe" stroke-width="1"/>
  <text x="505" y="381" font-family="Segoe UI" font-size="16" fill="#4facfe">☑</text>
  <text x="530" y="381" font-family="Segoe UI" font-size="13" fill="#e0e0e0">Evaluate deepfake detection solutions</text>
  <rect x="480" y="405" width="390" height="42" rx="8" fill="#1a1a3e" stroke="#4facfe" stroke-width="1"/>
  <text x="505" y="431" font-family="Segoe UI" font-size="16" fill="#4facfe">☑</text>
  <text x="530" y="431" font-family="Segoe UI" font-size="13" fill="#e0e0e0">Define official communication channels</text>
  <rect x="100" y="468" width="700" height="38" rx="8" fill="#1a1a3e" stroke="#ffab40" stroke-width="1.2"/>
  <text x="450" y="492" text-anchor="middle" font-family="Segoe UI" font-size="13" fill="#ffab40">Core Principle: Question → Verify → Then Share (Think Before You Share)</text>
</svg>