<svg xmlns="http://www.w3.org/2000/svg" viewBox="0 0 800 500">
  <rect width="800" height="500" fill="#f8f9fa"/>
  <text x="400" y="35" font-family="Arial, sans-serif" font-size="20" font-weight="bold" fill="#2c3e50" text-anchor="middle">2026 AI Reasoning Model Benchmarks</text>

  <!-- Legend -->
  <rect x="60" y="55" width="14" height="14" fill="#2980b9"/>
  <text x="80" y="67" font-family="Arial, sans-serif" font-size="12" fill="#2c3e50">OpenAI o3</text>
  <rect x="165" y="55" width="14" height="14" fill="#8e44ad"/>
  <text x="185" y="67" font-family="Arial, sans-serif" font-size="12" fill="#2c3e50">Claude Opus 4.7</text>
  <rect x="300" y="55" width="14" height="14" fill="#27ae60"/>
  <text x="320" y="67" font-family="Arial, sans-serif" font-size="12" fill="#2c3e50">Gemini 2.5 Pro</text>
  <rect x="430" y="55" width="14" height="14" fill="#e67e22"/>
  <text x="450" y="67" font-family="Arial, sans-serif" font-size="12" fill="#2c3e50">DeepSeek-R2</text>

  <!-- Y axis label -->
  <text x="20" y="280" font-family="Arial, sans-serif" font-size="12" fill="#5d6d7e" text-anchor="middle" transform="rotate(-90,20,280)">Score (%)</text>

  <!-- AIME 2024 group -->
  <text x="165" y="460" font-family="Arial, sans-serif" font-size="13" fill="#2c3e50" text-anchor="middle">AIME 2024</text>
  <rect x="80" y="109" width="35" height="336" fill="#2980b9"/>
  <text x="97" y="105" font-family="Arial, sans-serif" font-size="10" fill="#2c3e50" text-anchor="middle">96.7</text>
  <rect x="120" y="201" width="35" height="244" fill="#8e44ad"/>
  <text x="137" y="197" font-family="Arial, sans-serif" font-size="10" fill="#2c3e50" text-anchor="middle">88.0</text>
  <rect x="160" y="157" width="35" height="288" fill="#27ae60"/>
  <text x="177" y="153" font-family="Arial, sans-serif" font-size="10" fill="#2c3e50" text-anchor="middle">92.0</text>
  <rect x="200" y="167" width="35" height="278" fill="#e67e22"/>
  <text x="217" y="163" font-family="Arial, sans-serif" font-size="10" fill="#2c3e50" text-anchor="middle">91.0</text>

  <!-- SWE-bench group -->
  <text x="430" y="460" font-family="Arial, sans-serif" font-size="13" fill="#2c3e50" text-anchor="middle">SWE-bench</text>
  <rect x="345" y="233" width="35" height="212" fill="#2980b9"/>
  <text x="362" y="229" font-family="Arial, sans-serif" font-size="10" fill="#2c3e50" text-anchor="middle">71.7</text>
  <rect x="385" y="280" width="35" height="165" fill="#8e44ad"/>
  <text x="402" y="276" font-family="Arial, sans-serif" font-size="10" fill="#2c3e50" text-anchor="middle">65.0</text>
  <rect x="425" y="294" width="35" height="151" fill="#27ae60"/>
  <text x="442" y="290" font-family="Arial, sans-serif" font-size="10" fill="#2c3e50" text-anchor="middle">63.0</text>
  <rect x="465" y="303" width="35" height="142" fill="#e67e22"/>
  <text x="482" y="299" font-family="Arial, sans-serif" font-size="10" fill="#2c3e50" text-anchor="middle">62.0</text>

  <!-- GPQA group -->
  <text x="660" y="460" font-family="Arial, sans-serif" font-size="13" fill="#2c3e50" text-anchor="middle">GPQA Diamond</text>
  <rect x="575" y="138" width="35" height="307" fill="#2980b9"/>
  <text x="592" y="134" font-family="Arial, sans-serif" font-size="10" fill="#2c3e50" text-anchor="middle">87.7</text>
  <rect x="615" y="160" width="35" height="285" fill="#8e44ad"/>
  <text x="632" y="156" font-family="Arial, sans-serif" font-size="10" fill="#2c3e50" text-anchor="middle">85.0</text>
  <rect x="655" y="168" width="35" height="277" fill="#27ae60"/>
  <text x="672" y="164" font-family="Arial, sans-serif" font-size="10" fill="#2c3e50" text-anchor="middle">84.0</text>
  <rect x="695" y="177" width="35" height="268" fill="#e67e22"/>
  <text x="712" y="173" font-family="Arial, sans-serif" font-size="10" fill="#2c3e50" text-anchor="middle">83.0</text>

  <!-- Baseline axis -->
  <line x1="60" y1="445" x2="750" y2="445" stroke="#bdc3c7" stroke-width="1.5"/>

  <!-- Horizontal grid lines -->
  <line x1="60" y1="345" x2="750" y2="345" stroke="#ecf0f1" stroke-width="1" stroke-dasharray="4,4"/>
  <text x="55" y="349" font-family="Arial, sans-serif" font-size="10" fill="#7f8c8d" text-anchor="end">70</text>
  <line x1="60" y1="245" x2="750" y2="245" stroke="#ecf0f1" stroke-width="1" stroke-dasharray="4,4"/>
  <text x="55" y="249" font-family="Arial, sans-serif" font-size="10" fill="#7f8c8d" text-anchor="end">85</text>
  <line x1="60" y1="145" x2="750" y2="145" stroke="#ecf0f1" stroke-width="1" stroke-dasharray="4,4"/>
  <text x="55" y="149" font-family="Arial, sans-serif" font-size="10" fill="#7f8c8d" text-anchor="end">95</text>
</svg>
