<svg xmlns="http://www.w3.org/2000/svg" viewBox="0 0 820 480" width="820" height="480">
  <rect width="820" height="480" fill="#FFFFFF"/>
  <rect x="0" y="0" width="820" height="60" fill="#F0F9FF" rx="0"/>
  <text x="410" y="22" text-anchor="middle" font-family="Arial, sans-serif" font-size="18" font-weight="bold" fill="#0C4A6E">양자 컴퓨팅 발전 로드맵</text>
  <text x="410" y="46" text-anchor="middle" font-family="Arial, sans-serif" font-size="13" fill="#475569">NISQ 시대에서 범용 양자 컴퓨팅으로의 진화 경로</text>

  <!-- Stage 1: NISQ Era (NOW) -->
  <rect x="30" y="80" width="230" height="340" rx="14" fill="#F1F5F9" stroke="#94A3B8" stroke-width="2"/>
  <rect x="30" y="80" width="230" height="48" rx="14" fill="#64748B"/>
  <rect x="30" y="114" width="230" height="14" fill="#64748B"/>
  <text x="145" y="112" text-anchor="middle" font-family="Arial, sans-serif" font-size="13" font-weight="bold" fill="#FFFFFF">📍 현재 — NISQ 시대</text>
  <text x="145" y="152" text-anchor="middle" font-family="Arial, sans-serif" font-size="11" fill="#64748B">2019년~현재</text>
  <text x="145" y="176" text-anchor="middle" font-family="Arial, sans-serif" font-size="13" font-weight="bold" fill="#334155">수십~수천 큐비트</text>
  <line x1="50" y1="192" x2="240" y2="192" stroke="#E2E8F0" stroke-width="1"/>
  <text x="50" y="216" font-family="Arial, sans-serif" font-size="12" fill="#475569">• 오류율이 높아 실용적</text>
  <text x="50" y="236" font-family="Arial, sans-serif" font-size="12" fill="#475569">  문제 해결에 한계</text>
  <text x="50" y="258" font-family="Arial, sans-serif" font-size="12" fill="#475569">• 구글 윌로우 105큐비트</text>
  <text x="50" y="278" font-family="Arial, sans-serif" font-size="12" fill="#475569">• IBM Condor 1000+큐비트</text>
  <text x="50" y="300" font-family="Arial, sans-serif" font-size="12" fill="#475569">• 오류 수정 연구 활발</text>
  <rect x="50" y="330" width="190" height="52" rx="8" fill="#E2E8F0"/>
  <text x="145" y="352" text-anchor="middle" font-family="Arial, sans-serif" font-size="12" font-weight="bold" fill="#334155">벤치마크·연구 수준</text>
  <text x="145" y="372" text-anchor="middle" font-family="Arial, sans-serif" font-size="11" fill="#64748B">실용적 상업 활용 제한적</text>

  <!-- Arrow 1 -->
  <text x="292" y="260" text-anchor="middle" font-family="Arial, sans-serif" font-size="28" fill="#3B82F6">→</text>

  <!-- Stage 2: Error-corrected -->
  <rect x="305" y="80" width="210" height="340" rx="14" fill="#EFF6FF" stroke="#3B82F6" stroke-width="2"/>
  <rect x="305" y="80" width="210" height="48" rx="14" fill="#3B82F6"/>
  <rect x="305" y="114" width="210" height="14" fill="#3B82F6"/>
  <text x="410" y="112" text-anchor="middle" font-family="Arial, sans-serif" font-size="13" font-weight="bold" fill="#FFFFFF">🔜 근·중기 전망</text>
  <text x="410" y="152" text-anchor="middle" font-family="Arial, sans-serif" font-size="11" fill="#3B82F6">2026~2032년</text>
  <text x="410" y="176" text-anchor="middle" font-family="Arial, sans-serif" font-size="13" font-weight="bold" fill="#1D4ED8">오류 수정 양자 컴퓨팅</text>
  <line x1="325" y1="192" x2="495" y2="192" stroke="#BFDBFE" stroke-width="1"/>
  <text x="325" y="216" font-family="Arial, sans-serif" font-size="12" fill="#475569">• 수백 논리적 큐비트</text>
  <text x="325" y="236" font-family="Arial, sans-serif" font-size="12" fill="#475569">• 안정적 오류 수정</text>
  <text x="325" y="258" font-family="Arial, sans-serif" font-size="12" fill="#475569">• 화학·최적화 분야에서</text>
  <text x="325" y="278" font-family="Arial, sans-serif" font-size="12" fill="#2563EB">  첫 양자 이점 달성</text>
  <text x="325" y="298" font-family="Arial, sans-serif" font-size="12" fill="#475569">• 제약·금융·물류</text>
  <text x="325" y="318" font-family="Arial, sans-serif" font-size="12" fill="#475569">  상업적 활용 시작</text>
  <rect x="325" y="330" width="170" height="52" rx="8" fill="#DBEAFE"/>
  <text x="410" y="352" text-anchor="middle" font-family="Arial, sans-serif" font-size="12" font-weight="bold" fill="#1D4ED8">제한적 실용화</text>
  <text x="410" y="372" text-anchor="middle" font-family="Arial, sans-serif" font-size="11" fill="#3B82F6">특정 산업 ROI 달성</text>

  <!-- Arrow 2 -->
  <text x="528" y="260" text-anchor="middle" font-family="Arial, sans-serif" font-size="28" fill="#8B5CF6">→</text>

  <!-- Stage 3: Universal -->
  <rect x="550" y="80" width="240" height="340" rx="14" fill="#F5F3FF" stroke="#8B5CF6" stroke-width="2"/>
  <rect x="550" y="80" width="240" height="48" rx="14" fill="#8B5CF6"/>
  <rect x="550" y="114" width="240" height="14" fill="#8B5CF6"/>
  <text x="670" y="112" text-anchor="middle" font-family="Arial, sans-serif" font-size="13" font-weight="bold" fill="#FFFFFF">🚀 장기 전망</text>
  <text x="670" y="152" text-anchor="middle" font-family="Arial, sans-serif" font-size="11" fill="#8B5CF6">2032년 이후</text>
  <text x="670" y="176" text-anchor="middle" font-family="Arial, sans-serif" font-size="13" font-weight="bold" fill="#6D28D9">범용 양자 컴퓨팅</text>
  <line x1="570" y1="192" x2="770" y2="192" stroke="#DDD6FE" stroke-width="1"/>
  <text x="570" y="216" font-family="Arial, sans-serif" font-size="12" fill="#475569">• 수천 논리적 큐비트</text>
  <text x="570" y="236" font-family="Arial, sans-serif" font-size="12" fill="#475569">• 현행 암호화 체계 재편</text>
  <text x="570" y="258" font-family="Arial, sans-serif" font-size="12" fill="#475569">• AI 훈련 패러다임 전환</text>
  <text x="570" y="278" font-family="Arial, sans-serif" font-size="12" fill="#7C3AED">• 과학적 발견 속도 혁신</text>
  <text x="570" y="298" font-family="Arial, sans-serif" font-size="12" fill="#475569">• 분자 생물학·소재</text>
  <text x="570" y="318" font-family="Arial, sans-serif" font-size="12" fill="#475569">  연구 완전 변혁</text>
  <rect x="570" y="330" width="200" height="52" rx="8" fill="#EDE9FE"/>
  <text x="670" y="352" text-anchor="middle" font-family="Arial, sans-serif" font-size="12" font-weight="bold" fill="#6D28D9">산업 전반 혁신</text>
  <text x="670" y="372" text-anchor="middle" font-family="Arial, sans-serif" font-size="11" fill="#7C3AED">일정은 아직 유동적</text>

  <text x="410" y="450" text-anchor="middle" font-family="Arial, sans-serif" font-size="11" fill="#94A3B8">양자 컴퓨팅 발전 로드맵 · 2026</text>
</svg>
