<svg xmlns="http://www.w3.org/2000/svg" width="1200" height="630" viewBox="0 0 1200 630">
  <defs>
    <linearGradient id="abg" x1="0" y1="0" x2="1" y2="1">
      <stop offset="0%" stop-color="#3b0764"/>
      <stop offset="100%" stop-color="#0f172a"/>
    </linearGradient>
    <marker id="aa" markerWidth="10" markerHeight="10" refX="9" refY="3" orient="auto">
      <path d="M0,0 L0,6 L9,3 z" fill="#e879f9"/>
    </marker>
  </defs>
  <rect width="1200" height="630" fill="url(#abg)"/>
  <text x="52" y="90" fill="#fae8ff" font-size="32" font-family="Segoe UI, Malgun Gothic, sans-serif" font-weight="700">AI 자동화 계약 핵심 조항</text>
  <text x="52" y="132" fill="#e879f9" font-size="19" font-family="Segoe UI, Malgun Gothic, sans-serif">범위 · 데이터 · IP · 검수 · SLA</text>
  <rect x="52" y="168" width="1096" height="434" rx="18" fill="#111827" stroke="#a855f7" stroke-opacity="0.55"/>
  <rect x="88" y="208" width="140" height="72" rx="10" fill="#581c87" stroke="#c084fc"/>
  <text x="118" y="242" fill="#f5d0fe" font-size="14" font-family="Segoe UI, sans-serif">Scope</text>
  <text x="104" y="264" fill="#e9d5ff" font-size="11" font-family="Segoe UI, Malgun Gothic, sans-serif">포함·제외</text>
  <line x1="228" y1="244" x2="268" y2="244" stroke="#e879f9" stroke-width="2" marker-end="url(#aa)"/>
  <rect x="268" y="208" width="140" height="72" rx="10" fill="#581c87" stroke="#c084fc"/>
  <text x="290" y="242" fill="#f5d0fe" font-size="14" font-family="Segoe UI, sans-serif">Data</text>
  <text x="278" y="264" fill="#e9d5ff" font-size="11" font-family="Segoe UI, Malgun Gothic, sans-serif">보관·삭제</text>
  <line x1="408" y1="244" x2="448" y2="244" stroke="#e879f9" stroke-width="2" marker-end="url(#aa)"/>
  <rect x="448" y="208" width="140" height="72" rx="10" fill="#581c87" stroke="#c084fc"/>
  <text x="480" y="242" fill="#f5d0fe" font-size="14" font-family="Segoe UI, sans-serif">IP</text>
  <text x="458" y="264" fill="#e9d5ff" font-size="11" font-family="Segoe UI, Malgun Gothic, sans-serif">귀속·라이선스</text>
  <line x1="588" y1="244" x2="628" y2="244" stroke="#e879f9" stroke-width="2" marker-end="url(#aa)"/>
  <rect x="628" y="208" width="160" height="72" rx="10" fill="#581c87" stroke="#c084fc"/>
  <text x="648" y="242" fill="#f5d0fe" font-size="14" font-family="Segoe UI, sans-serif">Acceptance</text>
  <text x="640" y="264" fill="#e9d5ff" font-size="11" font-family="Segoe UI, Malgun Gothic, sans-serif">골든셋·수치</text>
  <line x1="788" y1="244" x2="828" y2="244" stroke="#e879f9" stroke-width="2" marker-end="url(#aa)"/>
  <rect x="828" y="208" width="140" height="72" rx="10" fill="#581c87" stroke="#c084fc"/>
  <text x="860" y="242" fill="#f5d0fe" font-size="14" font-family="Segoe UI, sans-serif">SLA</text>
  <text x="836" y="264" fill="#e9d5ff" font-size="11" font-family="Segoe UI, Malgun Gothic, sans-serif">등급·응답</text>
  <line x1="968" y1="244" x2="1008" y2="244" stroke="#e879f9" stroke-width="2" marker-end="url(#aa)"/>
  <rect x="1008" y="208" width="120" height="72" rx="10" fill="#831843" stroke="#fb7185"/>
  <text x="1028" y="248" fill="#ffe4e6" font-size="14" font-family="Segoe UI, sans-serif">Change</text>
  <rect x="88" y="320" width="1040" height="240" rx="14" fill="#0c1222" stroke="#475569"/>
  <text x="112" y="364" fill="#f1f5f9" font-size="18" font-family="Segoe UI, Malgun Gothic, sans-serif" font-weight="600">리스크 문장 예시</text>
  <text x="112" y="404" fill="#cbd5e1" font-size="15" font-family="Segoe UI, Malgun Gothic, sans-serif">입력 스키마 변경 시 별도 변경요청·재검수.</text>
  <text x="112" y="436" fill="#cbd5e1" font-size="15" font-family="Segoe UI, Malgun Gothic, sans-serif">모델·API 버전 변경 시 성능 리그레션 검증 의무.</text>
  <text x="112" y="468" fill="#cbd5e1" font-size="15" font-family="Segoe UI, Malgun Gothic, sans-serif">개인정보·영업비밀 마스킹 책임 구간 명시.</text>
  <text x="112" y="510" fill="#e879f9" font-size="14" font-family="Segoe UI, Malgun Gothic, sans-serif">기술 불확실성 = 계약 문장으로 선결제</text>
  <text x="112" y="538" fill="#64748b" font-size="13" font-family="Segoe UI, Malgun Gothic, sans-serif">법률 검토는 반드시 전문가와 병행</text>
</svg>
