<svg xmlns="http://www.w3.org/2000/svg" width="1200" height="630" viewBox="0 0 1200 630">
  <rect width="1200" height="630" fill="#111827"/>
  <text x="60" y="76" fill="#f8fafc" font-family="Arial, sans-serif" font-size="38" font-weight="700">AI Cost Dashboard Architecture</text>
  <g fill="#1d4ed8" stroke="#60a5fa" stroke-width="2">
    <rect x="70" y="180" width="220" height="100" rx="18"/><rect x="340" y="180" width="220" height="100" rx="18"/><rect x="610" y="180" width="220" height="100" rx="18"/><rect x="880" y="180" width="250" height="100" rx="18"/>
  </g>
  <g fill="#e2e8f0" font-family="Arial, sans-serif" font-size="19" font-weight="700" text-anchor="middle">
    <text x="180" y="224">Event Sources</text><text x="450" y="224">Collector</text><text x="720" y="224">Aggregator</text><text x="1005" y="224">Dashboard / Alerting</text>
  </g>
  <g stroke="#94a3b8" stroke-width="5" fill="none" marker-end="url(#ar)"><path d="M290 230 L340 230"/><path d="M560 230 L610 230"/><path d="M830 230 L880 230"/></g>
  <defs><marker id="ar" markerWidth="10" markerHeight="10" refX="7" refY="3" orient="auto"><path d="M0,0 L0,6 L8,3 z" fill="#94a3b8"/></marker></defs>
  <rect x="70" y="340" width="1060" height="170" rx="22" fill="#0f172a" stroke="#334155"/>
  <text x="110" y="390" fill="#f8fafc" font-family="Arial, sans-serif" font-size="20" font-weight="700">Data model</text>
  <text x="110" y="426" fill="#cbd5e1" font-family="Arial, sans-serif" font-size="18">request_id, model, user, endpoint, prompt_tokens, completion_tokens, cost, status, timestamp</text>
  <text x="110" y="462" fill="#cbd5e1" font-family="Arial, sans-serif" font-size="18">Use raw events for traceability, aggregated tables for reporting</text>
</svg>

