<svg xmlns="http://www.w3.org/2000/svg" width="1200" height="675" viewBox="0 0 1200 675" role="img" aria-labelledby="title desc"><title id="title">AI Coding Agents Decision Map 2026</title><desc id="desc">Decision map for selecting Claude Code, Cursor, Cline, Roo Code, or v0.</desc><rect width="1200" height="675" fill="#f8fafc"/><text x="70" y="90" font-size="38" font-family="Segoe UI, Arial, sans-serif" font-weight="700" fill="#0f172a">Choose Your Agent</text><rect x="80" y="180" width="260" height="100" rx="22" fill="#fff" stroke="#cbd5e1"/><text x="140" y="240" font-size="26" font-family="Segoe UI, Arial, sans-serif" font-weight="700" fill="#0f172a">Terminal work?</text><rect x="390" y="180" width="260" height="100" rx="22" fill="#fff" stroke="#cbd5e1"/><text x="448" y="240" font-size="26" font-family="Segoe UI, Arial, sans-serif" font-weight="700" fill="#0f172a">IDE first?</text><rect x="700" y="180" width="260" height="100" rx="22" fill="#fff" stroke="#cbd5e1"/><text x="762" y="240" font-size="26" font-family="Segoe UI, Arial, sans-serif" font-weight="700" fill="#0f172a">Cloud autonomy?</text><rect x="1010" y="180" width="110" height="100" rx="22" fill="#fff" stroke="#cbd5e1"/><text x="1035" y="240" font-size="26" font-family="Segoe UI, Arial, sans-serif" font-weight="700" fill="#0f172a">App gen?</text><rect x="80" y="360" width="260" height="100" rx="22" fill="#fff" stroke="#cbd5e1"/><text x="122" y="420" font-size="26" font-family="Segoe UI, Arial, sans-serif" font-weight="700" fill="#334155">Claude Code</text><rect x="390" y="360" width="260" height="100" rx="22" fill="#fff" stroke="#cbd5e1"/><text x="463" y="420" font-size="26" font-family="Segoe UI, Arial, sans-serif" font-weight="700" fill="#334155">Cursor</text><rect x="700" y="360" width="260" height="100" rx="22" fill="#fff" stroke="#cbd5e1"/><text x="768" y="420" font-size="26" font-family="Segoe UI, Arial, sans-serif" font-weight="700" fill="#334155">Roo Code</text><rect x="1010" y="360" width="110" height="100" rx="22" fill="#fff" stroke="#cbd5e1"/><text x="1038" y="420" font-size="26" font-family="Segoe UI, Arial, sans-serif" font-weight="700" fill="#334155">v0</text><rect x="390" y="520" width="260" height="80" rx="22" fill="#fff" stroke="#cbd5e1"/><text x="480" y="570" font-size="24" font-family="Segoe UI, Arial, sans-serif" font-weight="700" fill="#334155">Cline</text></svg>
