<svg xmlns="http://www.w3.org/2000/svg" width="1200" height="630" viewBox="0 0 1200 630">
  <rect width="1200" height="630" fill="#f5f3ff"/>
  <rect x="48" y="42" width="1104" height="546" rx="34" fill="#fff" stroke="#c4b5fd" stroke-width="2"/>
  <text x="82" y="106" font-size="40" font-family="Segoe UI, Arial, sans-serif" font-weight="700" fill="#6d28d9">AI Gateway Routing Strategy</text>
  <text x="82" y="146" font-size="20" font-family="Segoe UI, Arial, sans-serif" fill="#7c3aed">app -> gateway -> policy -> provider</text>
  <rect x="88" y="248" width="180" height="110" rx="24" fill="#fff" stroke="#c4b5fd"/>
  <text x="142" y="294" font-size="28" font-family="Segoe UI, Arial, sans-serif" font-weight="700" fill="#4c1d95">App</text>
  <text x="114" y="325" font-size="18" font-family="Segoe UI, Arial, sans-serif" fill="#6d28d9">single interface</text>
  <rect x="340" y="186" width="270" height="230" rx="28" fill="#faf5ff" stroke="#a78bfa" stroke-width="2"/>
  <text x="410" y="240" font-size="30" font-family="Segoe UI, Arial, sans-serif" font-weight="700" fill="#4c1d95">Gateway</text>
  <rect x="372" y="264" width="206" height="42" rx="12" fill="#fff" stroke="#c4b5fd"/>
  <text x="409" y="291" font-size="18" font-family="Segoe UI, Arial, sans-serif" fill="#6d28d9">routing + fallback</text>
  <rect x="372" y="318" width="206" height="42" rx="12" fill="#fff" stroke="#c4b5fd"/>
  <text x="407" y="345" font-size="18" font-family="Segoe UI, Arial, sans-serif" fill="#6d28d9">budgets + logs</text>
  <rect x="676" y="248" width="180" height="110" rx="24" fill="#fff" stroke="#c4b5fd"/>
  <text x="718" y="294" font-size="28" font-family="Segoe UI, Arial, sans-serif" font-weight="700" fill="#4c1d95">Policy</text>
  <text x="694" y="325" font-size="18" font-family="Segoe UI, Arial, sans-serif" fill="#6d28d9">controls behavior</text>
  <rect x="914" y="248" width="180" height="110" rx="24" fill="#fff" stroke="#c4b5fd"/>
  <text x="948" y="294" font-size="26" font-family="Segoe UI, Arial, sans-serif" font-weight="700" fill="#4c1d95">Model</text>
  <text x="944" y="325" font-size="18" font-family="Segoe UI, Arial, sans-serif" fill="#6d28d9">multi-provider</text>
  <path d="M268 303 C305 303, 310 303, 340 303" fill="none" stroke="#6d28d9" stroke-width="4"/>
  <path d="M610 303 C638 303, 646 303, 676 303" fill="none" stroke="#6d28d9" stroke-width="4"/>
  <path d="M856 303 C886 303, 896 303, 914 303" fill="none" stroke="#6d28d9" stroke-width="4"/>
</svg>
