<svg xmlns="http://www.w3.org/2000/svg" width="1200" height="630" viewBox="0 0 1200 630">
<defs>
  <linearGradient id="bg" x1="0" y1="0" x2="0.6" y2="1">
    <stop offset="0%" stop-color="#f8fafc"/>
    <stop offset="100%" stop-color="#f1f5f9"/>
  </linearGradient>
  <linearGradient id="hdr" x1="0" y1="0" x2="1" y2="0">
    <stop offset="0%" stop-color="#0284c7"/>
    <stop offset="100%" stop-color="#0284c7cc"/>
  </linearGradient>
  <marker id="arr" markerWidth="10" markerHeight="10" refX="9" refY="3" orient="auto">
    <path d="M0,0 L0,6 L9,3 z" fill="#0284c7"/>
  </marker>
  <filter id="sh" x="-5%" y="-5%" width="110%" height="120%">
    <feDropShadow dx="0" dy="3" stdDeviation="4" flood-color="#00000018"/>
  </filter>
</defs>
<rect width="1200" height="630" fill="url(#bg)"/>
<rect width="1200" height="8" fill="url(#hdr)"/>
<!-- Title -->
<text x="60" y="72" font-family="Arial,sans-serif" font-size="34" font-weight="700" fill="#0f172a">Ai Quality Audit Flow</text>
<line x1="60" y1="88" x2="1140" y2="88" stroke="#0284c7" stroke-width="2" opacity="0.3"/>
<rect x="60" y="260" width="160" height="80" rx="12" fill="white" stroke="#0284c7" stroke-width="2.5" filter="url(#sh)"/>
<text x="140" y="306" text-anchor="middle" font-family="Arial,sans-serif" font-size="17" font-weight="600" fill="#0284c7">Measure</text>
<circle cx="76" cy="276" r="11" fill="#0284c7"/>
<text x="76" y="281" text-anchor="middle" font-family="Arial,sans-serif" font-size="12" font-weight="700" fill="white">1</text>
<line x1="224" y1="300" x2="286" y2="300" stroke="#0284c7" stroke-width="2" marker-end="url(#arr)" opacity="0.7"/>
<rect x="290" y="260" width="160" height="80" rx="12" fill="white" stroke="#0284c7" stroke-width="2.5" filter="url(#sh)"/>
<text x="370" y="306" text-anchor="middle" font-family="Arial,sans-serif" font-size="17" font-weight="600" fill="#0284c7">Baseline</text>
<circle cx="306" cy="276" r="11" fill="#0284c7"/>
<text x="306" y="281" text-anchor="middle" font-family="Arial,sans-serif" font-size="12" font-weight="700" fill="white">2</text>
<line x1="454" y1="300" x2="516" y2="300" stroke="#0284c7" stroke-width="2" marker-end="url(#arr)" opacity="0.7"/>
<rect x="520" y="260" width="160" height="80" rx="12" fill="white" stroke="#0284c7" stroke-width="2.5" filter="url(#sh)"/>
<text x="600" y="306" text-anchor="middle" font-family="Arial,sans-serif" font-size="17" font-weight="600" fill="#0284c7">Test</text>
<circle cx="536" cy="276" r="11" fill="#0284c7"/>
<text x="536" y="281" text-anchor="middle" font-family="Arial,sans-serif" font-size="12" font-weight="700" fill="white">3</text>
<line x1="684" y1="300" x2="746" y2="300" stroke="#0284c7" stroke-width="2" marker-end="url(#arr)" opacity="0.7"/>
<rect x="750" y="260" width="160" height="80" rx="12" fill="white" stroke="#0284c7" stroke-width="2.5" filter="url(#sh)"/>
<text x="830" y="306" text-anchor="middle" font-family="Arial,sans-serif" font-size="17" font-weight="600" fill="#0284c7">Score</text>
<circle cx="766" cy="276" r="11" fill="#0284c7"/>
<text x="766" y="281" text-anchor="middle" font-family="Arial,sans-serif" font-size="12" font-weight="700" fill="white">4</text>
<line x1="914" y1="300" x2="976" y2="300" stroke="#0284c7" stroke-width="2" marker-end="url(#arr)" opacity="0.7"/>
<rect x="980" y="260" width="160" height="80" rx="12" fill="white" stroke="#0284c7" stroke-width="2.5" filter="url(#sh)"/>
<text x="1060" y="306" text-anchor="middle" font-family="Arial,sans-serif" font-size="17" font-weight="600" fill="#0284c7">Improve</text>
<circle cx="996" cy="276" r="11" fill="#0284c7"/>
<text x="996" y="281" text-anchor="middle" font-family="Arial,sans-serif" font-size="12" font-weight="700" fill="white">5</text>
<text x="60" y="606" font-family="Arial,sans-serif" font-size="13" fill="#94a3b8">© Blog — Ai Quality Audit Flow</text>
</svg>