<svg xmlns="http://www.w3.org/2000/svg" width="1200" height="675" viewBox="0 0 1200 675"><rect width="1200" height="675" fill="#fff7ed"/><text x="70" y="88" font-size="38" font-family="Segoe UI, Arial, sans-serif" font-weight="700" fill="#9a3412">Browser Use Workflow</text><rect x="70" y="200" width="210" height="120" rx="24" fill="#fff" stroke="#fdba74"/><text x="123" y="252" font-size="28" font-family="Segoe UI, Arial, sans-serif" font-weight="700" fill="#7c2d12">Agent Task</text><text x="106" y="286" font-size="18" font-family="Segoe UI, Arial, sans-serif" fill="#9a3412">plain language goal</text><rect x="340" y="150" width="500" height="360" rx="30" fill="#fff" stroke="#fb923c" stroke-width="2"/><text x="482" y="205" font-size="34" font-family="Segoe UI, Arial, sans-serif" font-weight="700" fill="#7c2d12">Browser Use</text><rect x="390" y="245" width="150" height="86" rx="18" fill="#fff7ed" stroke="#fdba74"/><text x="427" y="298" font-size="24" font-family="Segoe UI, Arial, sans-serif" font-weight="700" fill="#c2410c">Session</text><rect x="570" y="245" width="150" height="86" rx="18" fill="#fff7ed" stroke="#fdba74"/><text x="608" y="298" font-size="24" font-family="Segoe UI, Arial, sans-serif" font-weight="700" fill="#c2410c">Profile</text><rect x="390" y="360" width="150" height="86" rx="18" fill="#fff7ed" stroke="#fdba74"/><text x="427" y="412" font-size="22" font-family="Segoe UI, Arial, sans-serif" font-weight="700" fill="#c2410c">Stealth</text><rect x="570" y="360" width="150" height="86" rx="18" fill="#fff7ed" stroke="#fdba74"/><text x="613" y="412" font-size="22" font-family="Segoe UI, Arial, sans-serif" font-weight="700" fill="#c2410c">MCP</text><rect x="890" y="200" width="240" height="120" rx="24" fill="#fff" stroke="#fdba74"/><text x="946" y="252" font-size="28" font-family="Segoe UI, Arial, sans-serif" font-weight="700" fill="#7c2d12">Browser</text><text x="912" y="286" font-size="18" font-family="Segoe UI, Arial, sans-serif" fill="#9a3412">cloud / local / CDP</text><path d="M280 260 C315 260, 320 260, 340 260" fill="none" stroke="#9a3412" stroke-width="4"/><path d="M840 260 C865 260, 870 260, 890 260" fill="none" stroke="#9a3412" stroke-width="4"/></svg>
