<svg width="1200" height="675" viewBox="0 0 1200 675" xmlns="http://www.w3.org/2000/svg">
  <defs>
    <linearGradient id="bg" x1="0" y1="0" x2="1" y2="1">
      <stop offset="0%" stop-color="#0f172a"/>
      <stop offset="100%" stop-color="#1e293b"/>
    </linearGradient>
    <linearGradient id="card" x1="0" y1="0" x2="1" y2="1">
      <stop offset="0%" stop-color="#1d4ed8"/>
      <stop offset="100%" stop-color="#0ea5e9"/>
    </linearGradient>
  </defs>
  <rect width="1200" height="675" fill="url(#bg)"/>
  <g opacity="0.18" stroke="#38bdf8" stroke-width="2">
    <line x1="180" y1="140" x2="600" y2="338"/>
    <line x1="420" y1="140" x2="600" y2="338"/>
    <line x1="780" y1="140" x2="600" y2="338"/>
    <line x1="1020" y1="140" x2="600" y2="338"/>
    <line x1="220" y1="530" x2="600" y2="338"/>
    <line x1="480" y1="530" x2="600" y2="338"/>
    <line x1="760" y1="530" x2="600" y2="338"/>
    <line x1="1020" y1="530" x2="600" y2="338"/>
  </g>
  <rect x="490" y="278" width="220" height="120" rx="18" fill="url(#card)"/>
  <text x="600" y="328" text-anchor="middle" fill="#e2e8f0" font-size="30" font-family="Segoe UI, Arial, sans-serif">Knowledge Hub</text>
  <text x="600" y="362" text-anchor="middle" fill="#cbd5e1" font-size="18" font-family="Segoe UI, Arial, sans-serif">Research -> Insight -> Publish</text>
  <g fill="#0ea5e9" opacity="0.95" font-family="Segoe UI, Arial, sans-serif">
    <rect x="110" y="95" width="160" height="70" rx="14" fill="#1e40af"/>
    <text x="190" y="138" text-anchor="middle" fill="#dbeafe" font-size="18">Hardware</text>
    <rect x="340" y="95" width="170" height="70" rx="14" fill="#1d4ed8"/>
    <text x="425" y="138" text-anchor="middle" fill="#dbeafe" font-size="18">Software</text>
    <rect x="700" y="95" width="160" height="70" rx="14" fill="#2563eb"/>
    <text x="780" y="138" text-anchor="middle" fill="#dbeafe" font-size="18">AI</text>
    <rect x="930" y="95" width="180" height="70" rx="14" fill="#0284c7"/>
    <text x="1020" y="138" text-anchor="middle" fill="#dbeafe" font-size="18">Tech Review</text>
    <rect x="140" y="495" width="170" height="70" rx="14" fill="#0f766e"/>
    <text x="225" y="538" text-anchor="middle" fill="#ccfbf1" font-size="18">Daily Log</text>
    <rect x="390" y="495" width="180" height="70" rx="14" fill="#0d9488"/>
    <text x="480" y="538" text-anchor="middle" fill="#ccfbf1" font-size="18">Learning</text>
    <rect x="670" y="495" width="180" height="70" rx="14" fill="#0891b2"/>
    <text x="760" y="538" text-anchor="middle" fill="#cffafe" font-size="18">Thinking</text>
    <rect x="940" y="495" width="180" height="70" rx="14" fill="#0369a1"/>
    <text x="1030" y="538" text-anchor="middle" fill="#dbeafe" font-size="18">Engineering</text>
  </g>
</svg>
