<svg xmlns="http://www.w3.org/2000/svg" viewBox="0 0 1200 630">
  <rect width="1200" height="630" fill="#f5fbf8"/>
  <rect x="54" y="54" width="1092" height="522" rx="34" fill="#ffffff" stroke="#d8e6de" stroke-width="2"/>
  <text x="88" y="118" font-family="Segoe UI, Arial" font-size="40" font-weight="700" fill="#1c3c2f">Claude API Messages Workflow</text>
  <text x="88" y="156" font-family="Segoe UI, Arial" font-size="20" fill="#5f786d">System prompt, user messages, and response in sequence</text>
  <rect x="94" y="240" width="186" height="104" rx="22" fill="#214e72"/>
  <text x="134" y="284" font-family="Segoe UI, Arial" font-size="24" font-weight="700" fill="#fff">System</text>
  <text x="124" y="314" font-family="Segoe UI, Arial" font-size="15" fill="#dbe9f6">rules / style</text>
  <rect x="336" y="208" width="248" height="168" rx="26" fill="#1f8a70"/>
  <text x="398" y="260" font-family="Segoe UI, Arial" font-size="28" font-weight="700" fill="#fff">Messages</text>
  <text x="372" y="296" font-family="Segoe UI, Arial" font-size="17" fill="#e7fff7">user, assistant, tools</text>
  <text x="360" y="326" font-family="Segoe UI, Arial" font-size="17" fill="#e7fff7">structured conversation</text>
  <rect x="664" y="140" width="220" height="88" rx="20" fill="#d46a2c"/>
  <text x="704" y="194" font-family="Segoe UI, Arial" font-size="24" font-weight="700" fill="#fff">Input</text>
  <rect x="664" y="260" width="220" height="88" rx="20" fill="#d46a2c"/>
  <text x="710" y="314" font-family="Segoe UI, Arial" font-size="24" font-weight="700" fill="#fff">Analysis</text>
  <rect x="664" y="380" width="220" height="88" rx="20" fill="#d46a2c"/>
  <text x="704" y="434" font-family="Segoe UI, Arial" font-size="24" font-weight="700" fill="#fff">Output</text>
  <rect x="940" y="240" width="166" height="104" rx="22" fill="#2f6fb0"/>
  <text x="977" y="284" font-family="Segoe UI, Arial" font-size="24" font-weight="700" fill="#fff">Reply</text>
  <text x="960" y="314" font-family="Segoe UI, Arial" font-size="15" fill="#e8f2fb">stable format</text>
  <path d="M280 292 L336 292" stroke="#5c7369" stroke-width="8" stroke-linecap="round"/>
  <path d="M584 244 L664 184" stroke="#5c7369" stroke-width="8" stroke-linecap="round"/>
  <path d="M584 292 L664 304" stroke="#5c7369" stroke-width="8" stroke-linecap="round"/>
  <path d="M584 340 L664 424" stroke="#5c7369" stroke-width="8" stroke-linecap="round"/>
  <path d="M884 292 L940 292" stroke="#5c7369" stroke-width="8" stroke-linecap="round"/>
</svg>
