<svg xmlns="http://www.w3.org/2000/svg" width="1200" height="675" viewBox="0 0 1200 675"><rect width="1200" height="675" fill="#eff6ff"/><text x="70" y="88" font-size="38" font-family="Segoe UI, Arial, sans-serif" font-weight="700" fill="#1e3a8a">Cline Workflow</text><rect x="70" y="200" width="210" height="120" rx="24" fill="#fff" stroke="#93c5fd"/><text x="124" y="252" font-size="28" font-family="Segoe UI, Arial, sans-serif" font-weight="700" fill="#1e3a8a">Developer</text><text x="106" y="286" font-size="18" font-family="Segoe UI, Arial, sans-serif" fill="#2563eb">approve / edit</text><rect x="340" y="150" width="500" height="360" rx="30" fill="#fff" stroke="#60a5fa" stroke-width="2"/><text x="538" y="205" font-size="34" font-family="Segoe UI, Arial, sans-serif" font-weight="700" fill="#1e3a8a">Cline</text><rect x="390" y="245" width="150" height="86" rx="18" fill="#eff6ff" stroke="#93c5fd"/><text x="424" y="298" font-size="24" font-family="Segoe UI, Arial, sans-serif" font-weight="700" fill="#2563eb">Plan</text><rect x="570" y="245" width="150" height="86" rx="18" fill="#eff6ff" stroke="#93c5fd"/><text x="620" y="298" font-size="24" font-family="Segoe UI, Arial, sans-serif" font-weight="700" fill="#2563eb">Act</text><rect x="390" y="360" width="150" height="86" rx="18" fill="#eff6ff" stroke="#93c5fd"/><text x="414" y="412" font-size="22" font-family="Segoe UI, Arial, sans-serif" font-weight="700" fill="#2563eb">Hooks</text><rect x="570" y="360" width="150" height="86" rx="18" fill="#eff6ff" stroke="#93c5fd"/><text x="616" y="412" font-size="22" font-family="Segoe UI, Arial, sans-serif" font-weight="700" fill="#2563eb">MCP</text><rect x="890" y="200" width="240" height="120" rx="24" fill="#fff" stroke="#93c5fd"/><text x="957" y="252" font-size="28" font-family="Segoe UI, Arial, sans-serif" font-weight="700" fill="#1e3a8a">CLI / IDE</text><text x="928" y="286" font-size="18" font-family="Segoe UI, Arial, sans-serif" fill="#2563eb">interactive and headless</text><path d="M280 260 C315 260, 320 260, 340 260" fill="none" stroke="#2563eb" stroke-width="4"/><path d="M840 260 C865 260, 870 260, 890 260" fill="none" stroke="#2563eb" stroke-width="4"/></svg>
