<svg xmlns="http://www.w3.org/2000/svg" width="1200" height="675" viewBox="0 0 1200 675" role="img" aria-labelledby="title desc">
  <title id="title">fal Workflow 2026</title>
  <desc id="desc">fal model APIs and serverless GPU workflow.</desc>
  <defs>
    <linearGradient id="bg" x1="0" y1="0" x2="1" y2="1">
      <stop offset="0%" stop-color="#fff7ed"/>
      <stop offset="100%" stop-color="#ffedd5"/>
    </linearGradient>
    <marker id="arrow" markerWidth="10" markerHeight="10" refX="8" refY="5" orient="auto">
      <path d="M0,0 L10,5 L0,10 z" fill="#c2410c"/>
    </marker>
  </defs>
  <rect width="1200" height="675" fill="url(#bg)"/>
  <text x="70" y="88" font-size="38" font-family="Segoe UI, Arial, sans-serif" font-weight="700" fill="#9a3412">fal Workflow</text>
  <rect x="80" y="220" width="220" height="110" rx="24" fill="#fff" stroke="#fdba74"/>
  <text x="124" y="280" font-size="28" font-family="Segoe UI, Arial, sans-serif" font-weight="700" fill="#7c2d12">Model API</text>
  <rect x="360" y="150" width="480" height="360" rx="28" fill="#fff" stroke="#fb923c" stroke-width="2"/>
  <text x="540" y="205" font-size="34" font-family="Segoe UI, Arial, sans-serif" font-weight="700" fill="#7c2d12">fal</text>
  <rect x="410" y="250" width="160" height="82" rx="18" fill="#fff7ed" stroke="#fdba74"/>
  <text x="455" y="300" font-size="24" font-family="Segoe UI, Arial, sans-serif" font-weight="700" fill="#c2410c">Queue</text>
  <rect x="620" y="250" width="160" height="82" rx="18" fill="#fff7ed" stroke="#fdba74"/>
  <text x="652" y="300" font-size="24" font-family="Segoe UI, Arial, sans-serif" font-weight="700" fill="#c2410c">Serverless</text>
  <rect x="410" y="370" width="160" height="82" rx="18" fill="#fff7ed" stroke="#fdba74"/>
  <text x="431" y="410" font-size="22" font-family="Segoe UI, Arial, sans-serif" font-weight="700" fill="#c2410c">Distributed</text>
  <text x="449" y="437" font-size="18" font-family="Segoe UI, Arial, sans-serif" fill="#c2410c">GPU</text>
  <rect x="620" y="370" width="160" height="82" rx="18" fill="#fff7ed" stroke="#fdba74"/>
  <text x="640" y="410" font-size="22" font-family="Segoe UI, Arial, sans-serif" font-weight="700" fill="#c2410c">Observability</text>
  <text x="660" y="437" font-size="18" font-family="Segoe UI, Arial, sans-serif" fill="#c2410c">metrics</text>
  <rect x="900" y="220" width="220" height="110" rx="24" fill="#fff" stroke="#fdba74"/>
  <text x="955" y="280" font-size="28" font-family="Segoe UI, Arial, sans-serif" font-weight="700" fill="#7c2d12">Images</text>
  <path d="M300 275 C330 275, 340 275, 360 275" fill="none" stroke="#c2410c" stroke-width="4" marker-end="url(#arrow)"/>
  <path d="M840 275 C870 275, 880 275, 900 275" fill="none" stroke="#c2410c" stroke-width="4" marker-end="url(#arrow)"/>
</svg>
