<svg width="1200" height="675" viewBox="0 0 1200 675" xmlns="http://www.w3.org/2000/svg">
  <rect width="1200" height="675" fill="#111827"/>
  <text x="600" y="82" text-anchor="middle" fill="#dbeafe" font-size="42" font-family="Segoe UI, Arial">Software Architecture</text>
  <rect x="120" y="140" width="280" height="140" rx="16" fill="#1d4ed8"/>
  <rect x="460" y="140" width="280" height="140" rx="16" fill="#2563eb"/>
  <rect x="800" y="140" width="280" height="140" rx="16" fill="#3b82f6"/>
  <rect x="120" y="360" width="280" height="170" rx="16" fill="#0f766e"/>
  <rect x="460" y="360" width="280" height="170" rx="16" fill="#0d9488"/>
  <rect x="800" y="360" width="280" height="170" rx="16" fill="#0891b2"/>
  <line x1="260" y1="280" x2="260" y2="360" stroke="#93c5fd" stroke-width="4"/>
  <line x1="600" y1="280" x2="600" y2="360" stroke="#93c5fd" stroke-width="4"/>
  <line x1="940" y1="280" x2="940" y2="360" stroke="#93c5fd" stroke-width="4"/>
  <text x="260" y="220" text-anchor="middle" fill="#eff6ff" font-size="26" font-family="Segoe UI, Arial">Client</text>
  <text x="600" y="220" text-anchor="middle" fill="#eff6ff" font-size="26" font-family="Segoe UI, Arial">API</text>
  <text x="940" y="220" text-anchor="middle" fill="#eff6ff" font-size="26" font-family="Segoe UI, Arial">Worker</text>
  <text x="260" y="455" text-anchor="middle" fill="#ecfeff" font-size="26" font-family="Segoe UI, Arial">Cache</text>
  <text x="600" y="455" text-anchor="middle" fill="#ecfeff" font-size="26" font-family="Segoe UI, Arial">Queue</text>
  <text x="940" y="455" text-anchor="middle" fill="#ecfeff" font-size="26" font-family="Segoe UI, Arial">DB</text>
</svg>
