<svg xmlns="http://www.w3.org/2000/svg" width="1200" height="630" viewBox="0 0 1200 630">
  <defs>
    <linearGradient id="hbg" x1="0" y1="0" x2="1" y2="1">
      <stop offset="0%" stop-color="#134e4a"/>
      <stop offset="100%" stop-color="#0f172a"/>
    </linearGradient>
    <marker id="ha" markerWidth="10" markerHeight="10" refX="9" refY="3" orient="auto">
      <path d="M0,0 L0,6 L9,3 z" fill="#5eead4"/>
    </marker>
  </defs>
  <rect width="1200" height="630" fill="url(#hbg)"/>
  <text x="48" y="86" fill="#ccfbf1" font-size="34" font-family="Segoe UI, Malgun Gothic, sans-serif" font-weight="700">알람 피로 줄이기</text>
  <text x="48" y="130" fill="#5eead4" font-size="20" font-family="Segoe UI, Malgun Gothic, sans-serif">집계 · 심각도 · 채널 분리</text>
  <rect x="48" y="164" width="1104" height="438" rx="18" fill="#111827" stroke="#14b8a6" stroke-opacity="0.45"/>
  <circle cx="160" cy="280" r="36" fill="#0f766e" stroke="#5eead4" stroke-width="2"/>
  <text x="138" y="288" fill="#ecfdf5" font-size="14" font-family="Segoe UI, sans-serif">M1</text>
  <circle cx="280" cy="280" r="36" fill="#0f766e" stroke="#5eead4" stroke-width="2"/>
  <text x="258" y="288" fill="#ecfdf5" font-size="14" font-family="Segoe UI, sans-serif">M2</text>
  <circle cx="400" cy="280" r="36" fill="#0f766e" stroke="#5eead4" stroke-width="2"/>
  <text x="378" y="288" fill="#ecfdf5" font-size="14" font-family="Segoe UI, sans-serif">M3</text>
  <text x="120" y="220" fill="#94a3b8" font-size="15" font-family="Segoe UI, Malgun Gothic, sans-serif">다중 메트릭 폭주</text>
  <line x1="196" y1="280" x2="244" y2="280" stroke="#5eead4" stroke-width="2" marker-end="url(#ha)"/>
  <line x1="316" y1="280" x2="364" y2="280" stroke="#5eead4" stroke-width="2" marker-end="url(#ha)"/>
  <line x1="436" y1="280" x2="520" y2="280" stroke="#5eead4" stroke-width="3" marker-end="url(#ha)"/>
  <rect x="520" y="232" width="200" height="96" rx="12" fill="#164e63" stroke="#22d3ee"/>
  <text x="548" y="268" fill="#ecfeff" font-size="16" font-family="Segoe UI, Malgun Gothic, sans-serif" font-weight="600">집계 윈도</text>
  <text x="540" y="298" fill="#a5f3fc" font-size="13" font-family="Segoe UI, Malgun Gothic, sans-serif">동일 사건 1건화</text>
  <line x1="720" y1="280" x2="780" y2="280" stroke="#5eead4" stroke-width="3" marker-end="url(#ha)"/>
  <rect x="780" y="220" width="320" height="120" rx="12" fill="#1e1b4b" stroke="#a78bfa"/>
  <text x="800" y="258" fill="#ede9fe" font-size="15" font-family="Segoe UI, Malgun Gothic, sans-serif">Info → 대시보드</text>
  <text x="800" y="286" fill="#ede9fe" font-size="15" font-family="Segoe UI, Malgun Gothic, sans-serif">Warn → 비동기</text>
  <text x="800" y="314" fill="#fde68a" font-size="15" font-family="Segoe UI, Malgun Gothic, sans-serif">Crit → 즉시 + 런북</text>
  <rect x="96" y="380" width="1008" height="180" rx="12" fill="#0c1222" stroke="#475569"/>
  <text x="120" y="424" fill="#f1f5f9" font-size="17" font-family="Segoe UI, Malgun Gothic, sans-serif" font-weight="600">피로도 점검 질문</text>
  <text x="120" y="460" fill="#cbd5e1" font-size="15" font-family="Segoe UI, Malgun Gothic, sans-serif">· 지난주 알람 중 조치한 비율은?</text>
  <text x="120" y="490" fill="#cbd5e1" font-size="15" font-family="Segoe UI, Malgun Gothic, sans-serif">· 동일 장애가 여러 규칙에서 울리는가?</text>
  <text x="120" y="520" fill="#cbd5e1" font-size="15" font-family="Segoe UI, Malgun Gothic, sans-serif">· 백업·점검 창에 억제가 있는가?</text>
  <text x="620" y="460" fill="#5eead4" font-size="14" font-family="Segoe UI, Malgun Gothic, sans-serif">목표: 신호 대 잡음 비율</text>
  <text x="620" y="490" fill="#94a3b8" font-size="14" font-family="Segoe UI, Malgun Gothic, sans-serif">알람 수 자체는 KPI가 아님</text>
</svg>
