<svg xmlns="http://www.w3.org/2000/svg" width="1200" height="630" viewBox="0 0 1200 630">
  <defs>
    <linearGradient id="bbg" x1="0" y1="0" x2="1" y2="1">
      <stop offset="0%" stop-color="#0f172a"/>
      <stop offset="100%" stop-color="#14532d"/>
    </linearGradient>
    <marker id="bm" markerWidth="10" markerHeight="10" refX="9" refY="3" orient="auto">
      <path d="M0,0 L0,6 L9,3 z" fill="#4ade80"/>
    </marker>
  </defs>
  <rect width="1200" height="630" fill="url(#bbg)"/>
  <text x="48" y="80" fill="#dcfce7" font-size="32" font-family="Segoe UI, Malgun Gothic, sans-serif" font-weight="700">백업·복구 리허설 자동화</text>
  <text x="48" y="122" fill="#86efac" font-size="19" font-family="Segoe UI, Malgun Gothic, sans-serif">스케줄 · 검증 · 티켓 · 개선 루프</text>
  <rect x="48" y="154" width="1104" height="448" rx="18" fill="#111827" stroke="#22c55e" stroke-opacity="0.5"/>
  <rect x="88" y="210" width="180" height="72" rx="12" fill="#14532d" stroke="#4ade80"/>
  <text x="118" y="252" fill="#ecfdf5" font-size="15" font-family="Segoe UI, sans-serif">Schedule</text>
  <line x1="268" y1="246" x2="328" y2="246" stroke="#4ade80" stroke-width="2" marker-end="url(#bm)"/>
  <rect x="328" y="210" width="200" height="72" rx="12" fill="#14532d" stroke="#4ade80"/>
  <text x="366" y="252" fill="#ecfdf5" font-size="15" font-family="Segoe UI, sans-serif">Test env</text>
  <line x1="528" y1="246" x2="588" y2="246" stroke="#4ade80" stroke-width="2" marker-end="url(#bm)"/>
  <rect x="588" y="210" width="200" height="72" rx="12" fill="#14532d" stroke="#4ade80"/>
  <text x="618" y="252" fill="#ecfdf5" font-size="15" font-family="Segoe UI, sans-serif">Restore</text>
  <line x1="788" y1="246" x2="848" y2="246" stroke="#4ade80" stroke-width="2" marker-end="url(#bm)"/>
  <rect x="848" y="210" width="200" height="72" rx="12" fill="#14532d" stroke="#4ade80"/>
  <text x="888" y="252" fill="#ecfdf5" font-size="15" font-family="Segoe UI, sans-serif">Health</text>
  <path d="M948 282 L948 360 L200 360 L200 282" fill="none" stroke="#86efac" stroke-width="2" marker-end="url(#bm)"/>
  <rect x="88" y="390" width="520" height="180" rx="14" fill="#0c1222" stroke="#334155"/>
  <text x="112" y="434" fill="#f1f5f9" font-size="17" font-family="Segoe UI, Malgun Gothic, sans-serif" font-weight="600">성공 시</text>
  <text x="112" y="468" fill="#cbd5e1" font-size="15" font-family="Segoe UI, Malgun Gothic, sans-serif">리포트 저장 · 소요 시간 기록</text>
  <text x="112" y="498" fill="#cbd5e1" font-size="15" font-family="Segoe UI, Malgun Gothic, sans-serif">런북 일치 여부 체크</text>
  <text x="112" y="538" fill="#86efac" font-size="14" font-family="Segoe UI, Malgun Gothic, sans-serif">월간 통과율 KPI 반영</text>
  <rect x="632" y="390" width="480" height="180" rx="14" fill="#0c1222" stroke="#334155"/>
  <text x="656" y="434" fill="#f1f5f9" font-size="17" font-family="Segoe UI, Malgun Gothic, sans-serif" font-weight="600">실패 시</text>
  <text x="656" y="468" fill="#cbd5e1" font-size="15" font-family="Segoe UI, Malgun Gothic, sans-serif">실패 코드 부여</text>
  <text x="656" y="498" fill="#cbd5e1" font-size="15" font-family="Segoe UI, Malgun Gothic, sans-serif">티켓 자동 생성</text>
  <text x="656" y="538" fill="#fca5a5" font-size="14" font-family="Segoe UI, Malgun Gothic, sans-serif">다음 스프린트 개선 과제로 편입</text>
</svg>
