<svg xmlns="http://www.w3.org/2000/svg" width="1200" height="630" viewBox="0 0 1200 630">
  <defs>
    <linearGradient id="bg5" x1="0" y1="0" x2="1" y2="1">
      <stop offset="0%" stop-color="#111827"/>
      <stop offset="100%" stop-color="#0f172a"/>
    </linearGradient>
  </defs>
  <rect width="1200" height="630" fill="url(#bg5)"/>
  <text x="80" y="82" fill="#f8fafc" font-family="Arial, sans-serif" font-size="48" font-weight="700">Image to Structured Data</text>
  <text x="80" y="122" fill="#cbd5e1" font-family="Arial, sans-serif" font-size="22">Image input becomes validated JSON</text>
  <rect x="75" y="188" width="180" height="124" rx="22" fill="#0f172a" stroke="#334155"/>
  <rect x="275" y="188" width="180" height="124" rx="22" fill="#0f172a" stroke="#334155"/>
  <rect x="475" y="188" width="180" height="124" rx="22" fill="#0f172a" stroke="#334155"/>
  <rect x="675" y="188" width="180" height="124" rx="22" fill="#0f172a" stroke="#334155"/>
  <rect x="875" y="188" width="180" height="124" rx="22" fill="#0f172a" stroke="#334155"/>
  <text x="165" y="238" fill="#e2e8f0" text-anchor="middle" font-family="Arial, sans-serif" font-size="22" font-weight="700">Image</text>
  <text x="365" y="238" fill="#e2e8f0" text-anchor="middle" font-family="Arial, sans-serif" font-size="22" font-weight="700">Vision</text>
  <text x="565" y="238" fill="#e2e8f0" text-anchor="middle" font-family="Arial, sans-serif" font-size="22" font-weight="700">Schema</text>
  <text x="765" y="238" fill="#e2e8f0" text-anchor="middle" font-family="Arial, sans-serif" font-size="22" font-weight="700">Validate</text>
  <text x="965" y="238" fill="#e2e8f0" text-anchor="middle" font-family="Arial, sans-serif" font-size="22" font-weight="700">Store</text>
  <line x1="255" y1="250" x2="275" y2="250" stroke="#f59e0b" stroke-width="6" stroke-linecap="round"/>
  <line x1="455" y1="250" x2="475" y2="250" stroke="#f59e0b" stroke-width="6" stroke-linecap="round"/>
  <line x1="655" y1="250" x2="675" y2="250" stroke="#f59e0b" stroke-width="6" stroke-linecap="round"/>
  <line x1="855" y1="250" x2="875" y2="250" stroke="#f59e0b" stroke-width="6" stroke-linecap="round"/>
  <rect x="180" y="390" width="840" height="126" rx="28" fill="#020617" stroke="#475569"/>
  <text x="600" y="438" fill="#f8fafc" text-anchor="middle" font-family="Arial, sans-serif" font-size="26" font-weight="700">Read, constrain, verify, then persist</text>
  <text x="600" y="472" fill="#94a3b8" text-anchor="middle" font-family="Arial, sans-serif" font-size="18">The output should be ready for search, analytics, or workflow automation</text>
</svg>
