<svg xmlns="http://www.w3.org/2000/svg" width="1200" height="675" viewBox="0 0 1200 675"><rect width="1200" height="675" fill="#eef2ff"/><text x="70" y="90" font-size="38" font-family="Segoe UI, Arial, sans-serif" font-weight="700" fill="#312e81">Mastra Workflow</text><rect x="80" y="220" width="200" height="110" rx="24" fill="#fff" stroke="#a5b4fc"/><text x="132" y="280" font-size="28" font-family="Segoe UI, Arial, sans-serif" font-weight="700" fill="#312e81">Agents</text><rect x="350" y="150" width="500" height="360" rx="28" fill="#fff" stroke="#818cf8"/><text x="530" y="205" font-size="34" font-family="Segoe UI, Arial, sans-serif" font-weight="700" fill="#312e81">Mastra</text><rect x="405" y="250" width="160" height="82" rx="18" fill="#eef2ff" stroke="#a5b4fc"/><text x="437" y="300" font-size="24" font-family="Segoe UI, Arial, sans-serif" font-weight="700" fill="#4338ca">Workflow</text><rect x="635" y="250" width="160" height="82" rx="18" fill="#eef2ff" stroke="#a5b4fc"/><text x="674" y="300" font-size="24" font-family="Segoe UI, Arial, sans-serif" font-weight="700" fill="#4338ca">Memory</text><rect x="405" y="370" width="160" height="82" rx="18" fill="#eef2ff" stroke="#a5b4fc"/><text x="452" y="420" font-size="24" font-family="Segoe UI, Arial, sans-serif" font-weight="700" fill="#4338ca">MCP</text><rect x="635" y="370" width="160" height="82" rx="18" fill="#eef2ff" stroke="#a5b4fc"/><text x="644" y="410" font-size="22" font-family="Segoe UI, Arial, sans-serif" font-weight="700" fill="#4338ca">Tracing</text><text x="650" y="437" font-size="18" font-family="Segoe UI, Arial, sans-serif" fill="#4338ca">and evals</text><rect x="920" y="220" width="200" height="110" rx="24" fill="#fff" stroke="#a5b4fc"/><text x="972" y="280" font-size="28" font-family="Segoe UI, Arial, sans-serif" font-weight="700" fill="#312e81">Apps</text><path d="M280 275 C320 275, 330 275, 350 275" fill="none" stroke="#4338ca" stroke-width="4"/><path d="M850 275 C890 275, 900 275, 920 275" fill="none" stroke="#4338ca" stroke-width="4"/></svg>
