<svg width="800" height="450" viewBox="0 0 800 450" xmlns="http://www.w3.org/2000/svg" font-family="'Malgun Gothic', sans-serif">
  <rect width="800" height="450" fill="#F9FAFB" rx="12"/>
  <text x="400" y="35" text-anchor="middle" font-size="17" font-weight="bold" fill="#1F2937">개발자용 기계식 키보드 TOP 5 비교 (2026)</text>

  <!-- Column headers -->
  <rect x="15" y="50" width="145" height="36" fill="#374151" rx="4"/>
  <rect x="165" y="50" width="120" height="36" fill="#1D4ED8" rx="4"/>
  <rect x="290" y="50" width="120" height="36" fill="#065F46" rx="4"/>
  <rect x="415" y="50" width="120" height="36" fill="#5B21B6" rx="4"/>
  <rect x="540" y="50" width="120" height="36" fill="#92400E" rx="4"/>
  <rect x="665" y="50" width="120" height="36" fill="#991B1B" rx="4"/>

  <text x="87" y="73" text-anchor="middle" font-size="12" font-weight="bold" fill="white">항목</text>
  <text x="225" y="68" text-anchor="middle" font-size="11" font-weight="bold" fill="white">Keychron Q3</text>
  <text x="225" y="81" text-anchor="middle" font-size="10" fill="#BFDBFE">Pro (75%)</text>
  <text x="350" y="68" text-anchor="middle" font-size="11" font-weight="bold" fill="white">HHKB Pro</text>
  <text x="350" y="81" text-anchor="middle" font-size="10" fill="#A7F3D0">Hybrid Type-S</text>
  <text x="475" y="68" text-anchor="middle" font-size="11" font-weight="bold" fill="white">NuPhy Air75</text>
  <text x="475" y="81" text-anchor="middle" font-size="10" fill="#DDD6FE">V2</text>
  <text x="600" y="68" text-anchor="middle" font-size="11" font-weight="bold" fill="white">Leopold</text>
  <text x="600" y="81" text-anchor="middle" font-size="10" fill="#FDE68A">FC750R</text>
  <text x="725" y="68" text-anchor="middle" font-size="11" font-weight="bold" fill="white">X-Bows</text>
  <text x="725" y="81" text-anchor="middle" font-size="10" fill="#FECACA">Ergonomic</text>

  <!-- Row data -->
  <!-- Row 1: 스위치 -->
  <rect x="15" y="90" width="145" height="34" fill="#F3F4F6" stroke="#D1D5DB" rx="2"/>
  <rect x="165" y="90" width="120" height="34" fill="#EFF6FF" stroke="#BFDBFE" rx="2"/>
  <rect x="290" y="90" width="120" height="34" fill="#ECFDF5" stroke="#A7F3D0" rx="2"/>
  <rect x="415" y="90" width="120" height="34" fill="#F5F3FF" stroke="#DDD6FE" rx="2"/>
  <rect x="540" y="90" width="120" height="34" fill="#FFFBEB" stroke="#FDE68A" rx="2"/>
  <rect x="665" y="90" width="120" height="34" fill="#FFF1F2" stroke="#FECACA" rx="2"/>
  <text x="87" y="111" text-anchor="middle" font-size="12" fill="#374151">스위치</text>
  <text x="225" y="111" text-anchor="middle" font-size="11" fill="#1E40AF">Cherry MX / 커스텀</text>
  <text x="350" y="111" text-anchor="middle" font-size="11" fill="#065F46">Topre 45g 정전용량</text>
  <text x="475" y="111" text-anchor="middle" font-size="11" fill="#5B21B6">NuPhy Wisteria</text>
  <text x="600" y="111" text-anchor="middle" font-size="11" fill="#92400E">Cherry MX Brown</text>
  <text x="725" y="111" text-anchor="middle" font-size="11" fill="#991B1B">Cherry MX Silent</text>

  <!-- Row 2: 레이아웃 -->
  <rect x="15" y="128" width="145" height="34" fill="#F3F4F6" stroke="#D1D5DB" rx="2"/>
  <rect x="165" y="128" width="120" height="34" fill="#EFF6FF" stroke="#BFDBFE" rx="2"/>
  <rect x="290" y="128" width="120" height="34" fill="#ECFDF5" stroke="#A7F3D0" rx="2"/>
  <rect x="415" y="128" width="120" height="34" fill="#F5F3FF" stroke="#DDD6FE" rx="2"/>
  <rect x="540" y="128" width="120" height="34" fill="#FFFBEB" stroke="#FDE68A" rx="2"/>
  <rect x="665" y="128" width="120" height="34" fill="#FFF1F2" stroke="#FECACA" rx="2"/>
  <text x="87" y="149" text-anchor="middle" font-size="12" fill="#374151">레이아웃</text>
  <text x="225" y="149" text-anchor="middle" font-size="11" fill="#1E40AF">75% (F열 포함)</text>
  <text x="350" y="149" text-anchor="middle" font-size="11" fill="#065F46">60% (화살표 없음)</text>
  <text x="475" y="149" text-anchor="middle" font-size="11" fill="#5B21B6">75% 슬림</text>
  <text x="600" y="149" text-anchor="middle" font-size="11" fill="#92400E">TKL (87키)</text>
  <text x="725" y="149" text-anchor="middle" font-size="11" fill="#991B1B">인체공학 분리형</text>

  <!-- Row 3: 연결 방식 -->
  <rect x="15" y="166" width="145" height="34" fill="#F3F4F6" stroke="#D1D5DB" rx="2"/>
  <rect x="165" y="166" width="120" height="34" fill="#EFF6FF" stroke="#BFDBFE" rx="2"/>
  <rect x="290" y="166" width="120" height="34" fill="#ECFDF5" stroke="#A7F3D0" rx="2"/>
  <rect x="415" y="166" width="120" height="34" fill="#F5F3FF" stroke="#DDD6FE" rx="2"/>
  <rect x="540" y="166" width="120" height="34" fill="#FFFBEB" stroke="#FDE68A" rx="2"/>
  <rect x="665" y="166" width="120" height="34" fill="#FFF1F2" stroke="#FECACA" rx="2"/>
  <text x="87" y="187" text-anchor="middle" font-size="12" fill="#374151">연결</text>
  <text x="225" y="187" text-anchor="middle" font-size="11" fill="#1E40AF">유선 + BT 5.1</text>
  <text x="350" y="187" text-anchor="middle" font-size="11" fill="#065F46">BT 4.2 + USB-C</text>
  <text x="475" y="187" text-anchor="middle" font-size="11" fill="#5B21B6">트리플모드 BT5.3</text>
  <text x="600" y="187" text-anchor="middle" font-size="11" fill="#92400E">유선 전용</text>
  <text x="725" y="187" text-anchor="middle" font-size="11" fill="#991B1B">유선 + BT</text>

  <!-- Row 4: 프로그래머빌리티 -->
  <rect x="15" y="204" width="145" height="34" fill="#F3F4F6" stroke="#D1D5DB" rx="2"/>
  <rect x="165" y="204" width="120" height="34" fill="#EFF6FF" stroke="#BFDBFE" rx="2"/>
  <rect x="290" y="204" width="120" height="34" fill="#ECFDF5" stroke="#A7F3D0" rx="2"/>
  <rect x="415" y="204" width="120" height="34" fill="#F5F3FF" stroke="#DDD6FE" rx="2"/>
  <rect x="540" y="204" width="120" height="34" fill="#FFFBEB" stroke="#FDE68A" rx="2"/>
  <rect x="665" y="204" width="120" height="34" fill="#FFF1F2" stroke="#FECACA" rx="2"/>
  <text x="87" y="225" text-anchor="middle" font-size="12" fill="#374151">QMK/VIA</text>
  <text x="225" y="225" text-anchor="middle" font-size="11" fill="#1E40AF">✅ 완전 지원</text>
  <text x="350" y="225" text-anchor="middle" font-size="11" fill="#065F46">❌ 불가</text>
  <text x="475" y="225" text-anchor="middle" font-size="11" fill="#5B21B6">✅ 지원</text>
  <text x="600" y="225" text-anchor="middle" font-size="11" fill="#92400E">❌ 불가</text>
  <text x="725" y="225" text-anchor="middle" font-size="11" fill="#991B1B">✅ QMK</text>

  <!-- Row 5: 소음 -->
  <rect x="15" y="242" width="145" height="34" fill="#F3F4F6" stroke="#D1D5DB" rx="2"/>
  <rect x="165" y="242" width="120" height="34" fill="#EFF6FF" stroke="#BFDBFE" rx="2"/>
  <rect x="290" y="242" width="120" height="34" fill="#ECFDF5" stroke="#A7F3D0" rx="2"/>
  <rect x="415" y="242" width="120" height="34" fill="#F5F3FF" stroke="#DDD6FE" rx="2"/>
  <rect x="540" y="242" width="120" height="34" fill="#FFFBEB" stroke="#FDE68A" rx="2"/>
  <rect x="665" y="242" width="120" height="34" fill="#FFF1F2" stroke="#FECACA" rx="2"/>
  <text x="87" y="263" text-anchor="middle" font-size="12" fill="#374151">소음</text>
  <text x="225" y="263" text-anchor="middle" font-size="11" fill="#1E40AF">중간</text>
  <text x="350" y="263" text-anchor="middle" font-size="11" fill="#065F46">매우 조용</text>
  <text x="475" y="263" text-anchor="middle" font-size="11" fill="#5B21B6">조용</text>
  <text x="600" y="263" text-anchor="middle" font-size="11" fill="#92400E">중간</text>
  <text x="725" y="263" text-anchor="middle" font-size="11" fill="#991B1B">조용</text>

  <!-- Row 6: 가격 -->
  <rect x="15" y="280" width="145" height="34" fill="#F3F4F6" stroke="#D1D5DB" rx="2"/>
  <rect x="165" y="280" width="120" height="34" fill="#EFF6FF" stroke="#BFDBFE" rx="2"/>
  <rect x="290" y="280" width="120" height="34" fill="#ECFDF5" stroke="#A7F3D0" rx="2"/>
  <rect x="415" y="280" width="120" height="34" fill="#F5F3FF" stroke="#DDD6FE" rx="2"/>
  <rect x="540" y="280" width="120" height="34" fill="#FFFBEB" stroke="#FDE68A" rx="2"/>
  <rect x="665" y="280" width="120" height="34" fill="#FFF1F2" stroke="#FECACA" rx="2"/>
  <text x="87" y="301" text-anchor="middle" font-size="12" fill="#374151">가격 (USD)</text>
  <text x="225" y="301" text-anchor="middle" font-size="11" fill="#1E40AF">~$179</text>
  <text x="350" y="301" text-anchor="middle" font-size="11" fill="#065F46">~$300</text>
  <text x="475" y="301" text-anchor="middle" font-size="11" fill="#5B21B6">~$119</text>
  <text x="600" y="301" text-anchor="middle" font-size="11" fill="#92400E">~$130</text>
  <text x="725" y="301" text-anchor="middle" font-size="11" fill="#991B1B">~$149</text>

  <!-- Recommendation row -->
  <rect x="165" y="322" width="120" height="34" fill="#DBEAFE" stroke="#3B82F6" stroke-width="2" rx="6"/>
  <rect x="290" y="322" width="120" height="34" fill="#D1FAE5" stroke="#10B981" stroke-width="2" rx="6"/>
  <rect x="415" y="322" width="120" height="34" fill="#EDE9FE" stroke="#8B5CF6" stroke-width="2" rx="6"/>
  <rect x="540" y="322" width="120" height="34" fill="#FEF3C7" stroke="#F59E0B" stroke-width="2" rx="6"/>
  <rect x="665" y="322" width="120" height="34" fill="#FEE2E2" stroke="#EF4444" stroke-width="2" rx="6"/>
  <text x="225" y="342" text-anchor="middle" font-size="11" font-weight="bold" fill="#1D4ED8">코딩 최강 추천</text>
  <text x="350" y="342" text-anchor="middle" font-size="11" font-weight="bold" fill="#065F46">프리미엄 타건감</text>
  <text x="475" y="342" text-anchor="middle" font-size="11" font-weight="bold" fill="#5B21B6">이동성 최고</text>
  <text x="600" y="342" text-anchor="middle" font-size="11" font-weight="bold" fill="#92400E">가성비 장기간</text>
  <text x="725" y="342" text-anchor="middle" font-size="11" font-weight="bold" fill="#991B1B">손목 보호</text>

  <text x="400" y="420" text-anchor="middle" font-size="10" fill="#9CA3AF">※ 2026년 3월 기준 시중가 | 개발자 실사용 관점 평가</text>
</svg>
