<svg xmlns="http://www.w3.org/2000/svg" width="1200" height="630" viewBox="0 0 1200 630">
  <rect width="1200" height="630" fill="#111827"/>
  <text x="70" y="92" fill="#f8fafc" font-size="40" font-family="sans-serif" font-weight="700">Retention Policy Choice Flow</text>
  <text x="70" y="132" fill="#cbd5e1" font-size="18" font-family="sans-serif">무엇을 얼마나 오래 남길지 결정하는 흐름</text>
  <circle cx="150" cy="250" r="58" fill="#1d4ed8"/><text x="126" y="245" fill="#fff" font-size="20" font-family="sans-serif" font-weight="700">New</text><text x="120" y="270" fill="#fff" font-size="17" font-family="sans-serif">Memory</text>
  <rect x="300" y="185" width="220" height="130" rx="18" fill="#0f766e" stroke="#5eead4" stroke-width="2"/>
  <text x="334" y="235" fill="#ecfeff" font-size="23" font-family="sans-serif" font-weight="700">Is it sensitive?</text>
  <text x="338" y="268" fill="#ccfbf1" font-size="17" font-family="sans-serif">privacy / compliance</text>
  <rect x="600" y="145" width="220" height="110" rx="18" fill="#7c2d12" stroke="#fb7185" stroke-width="2"/>
  <text x="650" y="190" fill="#fff7ed" font-size="24" font-family="sans-serif" font-weight="700">Short TTL</text>
  <text x="633" y="221" fill="#ffe4e6" font-size="17" font-family="sans-serif">temporary only</text>
  <rect x="600" y="295" width="220" height="110" rx="18" fill="#065f46" stroke="#34d399" stroke-width="2"/>
  <text x="651" y="340" fill="#ecfdf5" font-size="24" font-family="sans-serif" font-weight="700">Long TTL</text>
  <text x="638" y="371" fill="#d1fae5" font-size="17" font-family="sans-serif">preference / profile</text>
  <rect x="900" y="220" width="220" height="110" rx="18" fill="#1e293b" stroke="#38bdf8" stroke-width="2"/>
  <text x="953" y="264" fill="#e2e8f0" font-size="24" font-family="sans-serif" font-weight="700">Archive</text>
  <text x="929" y="295" fill="#cbd5e1" font-size="17" font-family="sans-serif">cold storage</text>
  <path d="M208 250 L300 250" stroke="#f59e0b" stroke-width="5" fill="none" marker-end="url(#a)"/>
  <path d="M520 250 L600 200" stroke="#f59e0b" stroke-width="5" fill="none" marker-end="url(#a)"/>
  <path d="M520 250 L600 350" stroke="#f59e0b" stroke-width="5" fill="none" marker-end="url(#a)"/>
  <path d="M820 200 L900 275" stroke="#f59e0b" stroke-width="5" fill="none" marker-end="url(#a)"/>
  <path d="M820 350 L900 275" stroke="#f59e0b" stroke-width="5" fill="none" marker-end="url(#a)"/>
  <defs><marker id="a" markerWidth="12" markerHeight="12" refX="10" refY="6" orient="auto"><path d="M0,0 L12,6 L0,12 z" fill="#f59e0b"/></marker></defs>
</svg>
