<svg xmlns="http://www.w3.org/2000/svg" width="1200" height="630" viewBox="0 0 1200 630">
  <rect width="1200" height="630" fill="#fff7ed"/>
  <rect x="48" y="42" width="1104" height="546" rx="34" fill="#fff" stroke="#fdba74" stroke-width="2"/>
  <text x="82" y="106" font-size="40" font-family="Segoe UI, Arial, sans-serif" font-weight="700" fill="#9a3412">Model Routing Workflow</text>
  <text x="82" y="146" font-size="20" font-family="Segoe UI, Arial, sans-serif" fill="#c2410c">App -> Gateway -> Provider -> Fallback</text>
  <rect x="90" y="248" width="180" height="110" rx="24" fill="#fff" stroke="#fdba74"/>
  <text x="138" y="294" font-size="28" font-family="Segoe UI, Arial, sans-serif" font-weight="700" fill="#7c2d12">App</text>
  <text x="118" y="325" font-size="18" font-family="Segoe UI, Arial, sans-serif" fill="#9a3412">request intent</text>
  <rect x="340" y="192" width="250" height="220" rx="28" fill="#fff8f1" stroke="#fb923c" stroke-width="2"/>
  <text x="392" y="242" font-size="30" font-family="Segoe UI, Arial, sans-serif" font-weight="700" fill="#7c2d12">Gateway</text>
  <rect x="372" y="268" width="186" height="44" rx="14" fill="#fff" stroke="#fdba74"/>
  <text x="414" y="297" font-size="20" font-family="Segoe UI, Arial, sans-serif" fill="#c2410c">policy engine</text>
  <rect x="372" y="326" width="88" height="52" rx="14" fill="#fff" stroke="#fdba74"/>
  <text x="387" y="358" font-size="18" font-family="Segoe UI, Arial, sans-serif" fill="#c2410c">route</text>
  <rect x="470" y="326" width="88" height="52" rx="14" fill="#fff" stroke="#fdba74"/>
  <text x="483" y="358" font-size="18" font-family="Segoe UI, Arial, sans-serif" fill="#c2410c">fallback</text>
  <rect x="690" y="248" width="180" height="110" rx="24" fill="#fff" stroke="#fdba74"/>
  <text x="716" y="294" font-size="28" font-family="Segoe UI, Arial, sans-serif" font-weight="700" fill="#7c2d12">Model</text>
  <text x="712" y="325" font-size="18" font-family="Segoe UI, Arial, sans-serif" fill="#9a3412">primary provider</text>
  <rect x="924" y="248" width="180" height="110" rx="24" fill="#fff" stroke="#fdba74"/>
  <text x="952" y="294" font-size="26" font-family="Segoe UI, Arial, sans-serif" font-weight="700" fill="#7c2d12">Backup</text>
  <text x="944" y="325" font-size="18" font-family="Segoe UI, Arial, sans-serif" fill="#9a3412">fallback provider</text>
  <path d="M270 303 C305 303, 310 303, 340 303" fill="none" stroke="#9a3412" stroke-width="4"/>
  <path d="M590 303 C640 303, 650 303, 690 303" fill="none" stroke="#9a3412" stroke-width="4"/>
  <path d="M870 303 C900 303, 910 303, 924 303" fill="none" stroke="#9a3412" stroke-width="4"/>
</svg>
