<svg xmlns="http://www.w3.org/2000/svg" width="1200" height="630" viewBox="0 0 1200 630">
  <defs>
    <linearGradient id="bg3" x1="0" y1="0" x2="1" y2="1">
      <stop offset="0%" stop-color="#082f49"/>
      <stop offset="100%" stop-color="#0f172a"/>
    </linearGradient>
  </defs>
  <rect width="1200" height="630" fill="url(#bg3)"/>
  <text x="80" y="84" fill="#f8fafc" font-family="Arial, sans-serif" font-size="46" font-weight="700">Multimodal Document Understanding</text>
  <text x="80" y="124" fill="#cbd5e1" font-family="Arial, sans-serif" font-size="22">Scan, layout, tables, and extraction in one pipeline</text>
  <rect x="70" y="190" width="170" height="130" rx="22" fill="#0f172a" stroke="#334155"/>
  <rect x="280" y="190" width="170" height="130" rx="22" fill="#0f172a" stroke="#334155"/>
  <rect x="490" y="190" width="170" height="130" rx="22" fill="#0f172a" stroke="#334155"/>
  <rect x="700" y="190" width="170" height="130" rx="22" fill="#0f172a" stroke="#334155"/>
  <rect x="910" y="190" width="170" height="130" rx="22" fill="#0f172a" stroke="#334155"/>
  <text x="155" y="240" fill="#e2e8f0" text-anchor="middle" font-family="Arial, sans-serif" font-size="22" font-weight="700">Scan PDF</text>
  <text x="365" y="240" fill="#e2e8f0" text-anchor="middle" font-family="Arial, sans-serif" font-size="22" font-weight="700">Layout Read</text>
  <text x="575" y="240" fill="#e2e8f0" text-anchor="middle" font-family="Arial, sans-serif" font-size="22" font-weight="700">Table Parse</text>
  <text x="785" y="240" fill="#e2e8f0" text-anchor="middle" font-family="Arial, sans-serif" font-size="22" font-weight="700">Validate</text>
  <text x="995" y="240" fill="#e2e8f0" text-anchor="middle" font-family="Arial, sans-serif" font-size="22" font-weight="700">JSON Store</text>
  <line x1="240" y1="255" x2="280" y2="255" stroke="#22d3ee" stroke-width="6" stroke-linecap="round"/>
  <line x1="450" y1="255" x2="490" y2="255" stroke="#22d3ee" stroke-width="6" stroke-linecap="round"/>
  <line x1="660" y1="255" x2="700" y2="255" stroke="#22d3ee" stroke-width="6" stroke-linecap="round"/>
  <line x1="870" y1="255" x2="910" y2="255" stroke="#22d3ee" stroke-width="6" stroke-linecap="round"/>
  <rect x="180" y="395" width="840" height="118" rx="26" fill="#020617" stroke="#475569"/>
  <text x="600" y="442" fill="#f8fafc" text-anchor="middle" font-family="Arial, sans-serif" font-size="26" font-weight="700">Read structure first, extract fields second</text>
  <text x="600" y="476" fill="#94a3b8" text-anchor="middle" font-family="Arial, sans-serif" font-size="18">Keep original file, parsed layout, and structured result together</text>
</svg>
