<svg xmlns="http://www.w3.org/2000/svg" width="1200" height="630" viewBox="0 0 1200 630">
  <rect width="1200" height="630" fill="#0b1020"/>
  <text x="60" y="90" fill="#f8fafc" font-family="Arial, sans-serif" font-size="42" font-weight="700">Prompt Ops Architecture</text>
  <g font-family="Arial, sans-serif" font-size="20" font-weight="700" fill="#e2e8f0">
    <rect x="70" y="150" width="180" height="88" rx="18" fill="#1d4ed8"/><text x="112" y="201">Prompt Registry</text>
    <rect x="290" y="150" width="180" height="88" rx="18" fill="#0f766e"/><text x="335" y="201">Evaluation Set</text>
    <rect x="510" y="150" width="180" height="88" rx="18" fill="#9333ea"/><text x="559" y="201">Approval Gate</text>
    <rect x="730" y="150" width="180" height="88" rx="18" fill="#b45309"/><text x="782" y="201">Runtime Config</text>
    <rect x="950" y="150" width="180" height="88" rx="18" fill="#be123c"/><text x="995" y="201">Telemetry</text>
    <rect x="340" y="330" width="520" height="120" rx="26" fill="#111827" stroke="#334155" stroke-width="2"/>
    <text x="450" y="380" fill="#f8fafc">Prompt Lifecycle Loop</text>
    <text x="390" y="412" fill="#cbd5e1">registry → test → approve → deploy → observe → revise</text>
  </g>
  <g stroke="#cbd5e1" stroke-width="5" fill="none" stroke-linecap="round">
    <path d="M250 194h40"/>
    <path d="M470 194h40"/>
    <path d="M690 194h40"/>
    <path d="M910 194h40"/>
    <path d="M600 238v84"/>
  </g>
</svg>
