<svg xmlns="http://www.w3.org/2000/svg" width="1200" height="630" viewBox="0 0 1200 630">
  <defs>
    <linearGradient id="g" x1="0" y1="0" x2="1" y2="1">
      <stop offset="0" stop-color="#0f172a"/>
      <stop offset="1" stop-color="#1e293b"/>
    </linearGradient>
  </defs>
  <rect width="1200" height="630" fill="url(#g)"/>
  <rect x="48" y="48" width="1104" height="534" rx="28" fill="#111827" stroke="#334155" stroke-width="2"/>
  <text x="72" y="110" fill="#f8fafc" font-family="Arial, sans-serif" font-size="42" font-weight="700">Prompt Ops Workflow</text>
  <text x="72" y="154" fill="#cbd5e1" font-family="Arial, sans-serif" font-size="20">Plan → Draft → Test → Approve → Release → Observe</text>
  <g font-family="Arial, sans-serif" font-size="22" font-weight="700" fill="#0f172a">
    <rect x="88" y="220" width="160" height="88" rx="18" fill="#c4b5fd"/><text x="128" y="272">Plan</text>
    <rect x="282" y="220" width="160" height="88" rx="18" fill="#93c5fd"/><text x="322" y="272">Draft</text>
    <rect x="476" y="220" width="160" height="88" rx="18" fill="#86efac"/><text x="526" y="272">Test</text>
    <rect x="670" y="220" width="160" height="88" rx="18" fill="#fde68a"/><text x="710" y="272">Approve</text>
    <rect x="864" y="220" width="160" height="88" rx="18" fill="#fca5a5"/><text x="914" y="272">Release</text>
    <rect x="670" y="360" width="160" height="88" rx="18" fill="#f9a8d4"/><text x="716" y="412">Observe</text>
  </g>
  <g stroke="#e2e8f0" stroke-width="6" fill="none" stroke-linecap="round" stroke-linejoin="round">
    <path d="M248 264h34"/>
    <path d="M442 264h34"/>
    <path d="M636 264h34"/>
    <path d="M830 264h34"/>
    <path d="M944 308v28c0 24-10 40-40 40h-10"/>
  </g>
</svg>
