<svg xmlns="http://www.w3.org/2000/svg" width="1200" height="630" viewBox="0 0 1200 630">
  <rect width="1200" height="630" fill="#08101d"/>
  <text x="70" y="88" fill="#fff" font-size="42" font-family="Arial, sans-serif" font-weight="700">Rewrite Architecture</text>
  <text x="70" y="128" fill="#cbd5e1" font-size="22" font-family="Arial, sans-serif">original query + context + search optimized query</text>
  <g font-family="Arial, sans-serif" font-size="19" font-weight="700" fill="#fff">
    <rect x="70" y="185" width="180" height="94" rx="18" fill="#162033" stroke="#c084fc" stroke-width="2"/>
    <rect x="290" y="185" width="180" height="94" rx="18" fill="#162033" stroke="#c084fc" stroke-width="2"/>
    <rect x="510" y="185" width="180" height="94" rx="18" fill="#162033" stroke="#c084fc" stroke-width="2"/>
    <rect x="730" y="185" width="180" height="94" rx="18" fill="#162033" stroke="#c084fc" stroke-width="2"/>
    <rect x="950" y="185" width="180" height="94" rx="18" fill="#162033" stroke="#c084fc" stroke-width="2"/>
    <text x="160" y="222" text-anchor="middle">Original</text>
    <text x="380" y="222" text-anchor="middle">Context</text>
    <text x="600" y="222" text-anchor="middle">Rewrite</text>
    <text x="820" y="222" text-anchor="middle">Search</text>
    <text x="1040" y="222" text-anchor="middle">Rerank</text>
    <path d="M250 232 H286" stroke="#94a3b8" stroke-width="5" stroke-linecap="round"/>
    <path d="M470 232 H506" stroke="#94a3b8" stroke-width="5" stroke-linecap="round"/>
    <path d="M690 232 H726" stroke="#94a3b8" stroke-width="5" stroke-linecap="round"/>
    <path d="M910 232 H946" stroke="#94a3b8" stroke-width="5" stroke-linecap="round"/>
  </g>
  <text x="95" y="370" fill="#ddd6fe" font-size="22" font-family="Arial, sans-serif">question</text>
  <text x="310" y="370" fill="#ddd6fe" font-size="22" font-family="Arial, sans-serif">history</text>
  <text x="550" y="370" fill="#ddd6fe" font-size="22" font-family="Arial, sans-serif">rewritten query</text>
  <text x="790" y="370" fill="#ddd6fe" font-size="22" font-family="Arial, sans-serif">retriever</text>
  <text x="1000" y="370" fill="#ddd6fe" font-size="22" font-family="Arial, sans-serif">ranked answer</text>
</svg>
