<svg xmlns="http://www.w3.org/2000/svg" width="1200" height="630" viewBox="0 0 1200 630">
  <rect width="1200" height="630" fill="#0f172a"/>
  <text x="70" y="92" fill="#fff" font-size="42" font-family="Arial, sans-serif" font-weight="700">Routing Choice Flow</text>
  <text x="70" y="130" fill="#cbd5e1" font-size="22" font-family="Arial, sans-serif">internal docs, hybrid search, web search</text>
  <g font-family="Arial, sans-serif" font-size="20" font-weight="700" fill="#fff">
    <rect x="70" y="180" width="180" height="72" rx="18" fill="#1e293b" stroke="#60a5fa" stroke-width="2"/>
    <rect x="270" y="180" width="180" height="72" rx="18" fill="#1e293b" stroke="#60a5fa" stroke-width="2"/>
    <rect x="470" y="180" width="180" height="72" rx="18" fill="#1e293b" stroke="#60a5fa" stroke-width="2"/>
    <rect x="670" y="180" width="180" height="72" rx="18" fill="#1e293b" stroke="#60a5fa" stroke-width="2"/>
    <rect x="870" y="180" width="180" height="72" rx="18" fill="#1e293b" stroke="#60a5fa" stroke-width="2"/>
    <text x="160" y="225" text-anchor="middle">Need fresh?</text>
    <text x="360" y="225" text-anchor="middle">Need policy?</text>
    <text x="560" y="225" text-anchor="middle">Use docs</text>
    <text x="760" y="225" text-anchor="middle">Use web</text>
    <text x="960" y="225" text-anchor="middle">Merge</text>
    <path d="M250 216 H266" stroke="#94a3b8" stroke-width="5" stroke-linecap="round"/>
    <path d="M450 216 H466" stroke="#94a3b8" stroke-width="5" stroke-linecap="round"/>
    <path d="M650 216 H666" stroke="#94a3b8" stroke-width="5" stroke-linecap="round"/>
    <path d="M850 216 H866" stroke="#94a3b8" stroke-width="5" stroke-linecap="round"/>
  </g>
  <circle cx="180" cy="390" r="70" fill="#2563eb" opacity="0.18"/>
  <circle cx="420" cy="390" r="70" fill="#16a34a" opacity="0.18"/>
  <circle cx="660" cy="390" r="70" fill="#f59e0b" opacity="0.18"/>
  <circle cx="900" cy="390" r="70" fill="#ef4444" opacity="0.18"/>
  <text x="180" y="395" fill="#fff" font-size="20" text-anchor="middle" font-family="Arial, sans-serif">Docs</text>
  <text x="420" y="395" fill="#fff" font-size="20" text-anchor="middle" font-family="Arial, sans-serif">Hybrid</text>
  <text x="660" y="395" fill="#fff" font-size="20" text-anchor="middle" font-family="Arial, sans-serif">Tavily</text>
  <text x="900" y="395" fill="#fff" font-size="20" text-anchor="middle" font-family="Arial, sans-serif">Exa</text>
</svg>
