<svg xmlns="http://www.w3.org/2000/svg" width="1200" height="630" viewBox="0 0 1200 630" fill="none">
  <defs>
    <linearGradient id="bg" x1="0" y1="0" x2="1200" y2="630" gradientUnits="userSpaceOnUse">
      <stop stop-color="#05101f"/>
      <stop offset="1" stop-color="#17304d"/>
    </linearGradient>
    <linearGradient id="accent" x1="120" y1="180" x2="1080" y2="180" gradientUnits="userSpaceOnUse">
      <stop stop-color="#22d3ee"/>
      <stop offset="1" stop-color="#60a5fa"/>
    </linearGradient>
  </defs>
  <rect width="1200" height="630" rx="32" fill="url(#bg)"/>
  <text x="70" y="96" fill="#e2e8f0" font-family="Arial" font-size="52" font-weight="700">RAG Indexing Architecture</text>
  <text x="70" y="138" fill="#93c5fd" font-family="Arial" font-size="22">connectors, parser, chunker, embedder, vector db, metadata</text>
  <rect x="70" y="220" width="150" height="110" rx="20" fill="#10263d" stroke="#38bdf8" stroke-width="2"/>
  <rect x="250" y="220" width="150" height="110" rx="20" fill="#10263d" stroke="#38bdf8" stroke-width="2"/>
  <rect x="430" y="220" width="150" height="110" rx="20" fill="#10263d" stroke="#38bdf8" stroke-width="2"/>
  <rect x="610" y="220" width="150" height="110" rx="20" fill="#10263d" stroke="#38bdf8" stroke-width="2"/>
  <rect x="790" y="220" width="150" height="110" rx="20" fill="#0f3b37" stroke="#34d399" stroke-width="2"/>
  <rect x="970" y="220" width="160" height="110" rx="20" fill="#10263d" stroke="#38bdf8" stroke-width="2"/>
  <text x="145" y="260" text-anchor="middle" fill="#fff" font-family="Arial" font-size="22" font-weight="700">Sources</text>
  <text x="145" y="290" text-anchor="middle" fill="#cbd5e1" font-family="Arial" font-size="15">APIs / files</text>
  <text x="325" y="260" text-anchor="middle" fill="#fff" font-family="Arial" font-size="22" font-weight="700">Parser</text>
  <text x="325" y="290" text-anchor="middle" fill="#cbd5e1" font-family="Arial" font-size="15">normalize</text>
  <text x="505" y="260" text-anchor="middle" fill="#fff" font-family="Arial" font-size="22" font-weight="700">Chunker</text>
  <text x="505" y="290" text-anchor="middle" fill="#cbd5e1" font-family="Arial" font-size="15">policy engine</text>
  <text x="685" y="260" text-anchor="middle" fill="#fff" font-family="Arial" font-size="22" font-weight="700">Embedder</text>
  <text x="685" y="290" text-anchor="middle" fill="#cbd5e1" font-family="Arial" font-size="15">versioned</text>
  <text x="865" y="260" text-anchor="middle" fill="#fff" font-family="Arial" font-size="22" font-weight="700">Vector DB</text>
  <text x="865" y="290" text-anchor="middle" fill="#bbf7d0" font-family="Arial" font-size="15">Qdrant / pgvector</text>
  <text x="1050" y="260" text-anchor="middle" fill="#fff" font-family="Arial" font-size="22" font-weight="700">Metadata</text>
  <text x="1050" y="290" text-anchor="middle" fill="#cbd5e1" font-family="Arial" font-size="15">version / ACL</text>
  <path d="M220 275 H245" stroke="url(#accent)" stroke-width="6" stroke-linecap="round"/>
  <path d="M400 275 H425" stroke="url(#accent)" stroke-width="6" stroke-linecap="round"/>
  <path d="M580 275 H605" stroke="url(#accent)" stroke-width="6" stroke-linecap="round"/>
  <path d="M760 275 H785" stroke="url(#accent)" stroke-width="6" stroke-linecap="round"/>
  <path d="M940 275 H965" stroke="url(#accent)" stroke-width="6" stroke-linecap="round"/>
  <rect x="110" y="390" width="250" height="120" rx="24" fill="#10263d" stroke="#64748b" stroke-width="2"/>
  <rect x="420" y="390" width="250" height="120" rx="24" fill="#0f3b37" stroke="#34d399" stroke-width="2"/>
  <rect x="730" y="390" width="370" height="120" rx="24" fill="#10263d" stroke="#64748b" stroke-width="2"/>
  <text x="235" y="435" text-anchor="middle" fill="#fff" font-family="Arial" font-size="22" font-weight="700">Backfill Queue</text>
  <text x="235" y="465" text-anchor="middle" fill="#cbd5e1" font-family="Arial" font-size="15">retries and retries</text>
  <text x="545" y="435" text-anchor="middle" fill="#fff" font-family="Arial" font-size="22" font-weight="700">Eval Worker</text>
  <text x="545" y="465" text-anchor="middle" fill="#bbf7d0" font-family="Arial" font-size="15">sample queries</text>
  <text x="915" y="435" text-anchor="middle" fill="#fff" font-family="Arial" font-size="22" font-weight="700">Monitoring & Versioning</text>
  <text x="915" y="465" text-anchor="middle" fill="#cbd5e1" font-family="Arial" font-size="15">quality, cost, freshness</text>
</svg>

