<svg xmlns="http://www.w3.org/2000/svg" width="1200" height="630" viewBox="0 0 1200 630">
  <defs>
    <linearGradient id="bg" x1="0" y1="0" x2="1" y2="1">
      <stop offset="0%" stop-color="#081225"/>
      <stop offset="100%" stop-color="#15355f"/>
    </linearGradient>
    <linearGradient id="card" x1="0" y1="0" x2="1" y2="1">
      <stop offset="0%" stop-color="#0f1f3a"/>
      <stop offset="100%" stop-color="#183d66"/>
    </linearGradient>
  </defs>
  <rect width="1200" height="630" fill="url(#bg)"/>
  <circle cx="980" cy="120" r="140" fill="#58a6ff" opacity="0.12"/>
  <circle cx="190" cy="520" r="180" fill="#7ee787" opacity="0.08"/>
  <text x="70" y="92" fill="#ffffff" font-size="44" font-family="Arial, sans-serif" font-weight="700">RAG Query Routing</text>
  <text x="70" y="132" fill="#c8d4e6" font-size="24" font-family="Arial, sans-serif">route by intent, freshness, and source type</text>
  <g font-family="Arial, sans-serif" font-size="22" font-weight="700">
    <rect x="70" y="200" width="180" height="88" rx="18" fill="url(#card)" stroke="#58a6ff" stroke-width="2"/>
    <rect x="286" y="200" width="180" height="88" rx="18" fill="url(#card)" stroke="#58a6ff" stroke-width="2"/>
    <rect x="502" y="200" width="180" height="88" rx="18" fill="url(#card)" stroke="#58a6ff" stroke-width="2"/>
    <rect x="718" y="200" width="180" height="88" rx="18" fill="url(#card)" stroke="#58a6ff" stroke-width="2"/>
    <rect x="934" y="200" width="180" height="88" rx="18" fill="url(#card)" stroke="#58a6ff" stroke-width="2"/>
    <text x="160" y="238" fill="#ffffff" text-anchor="middle">Question</text>
    <text x="376" y="238" fill="#ffffff" text-anchor="middle">Classify</text>
    <text x="592" y="238" fill="#ffffff" text-anchor="middle">Route</text>
    <text x="808" y="238" fill="#ffffff" text-anchor="middle">Retrieve</text>
    <text x="1024" y="238" fill="#ffffff" text-anchor="middle">Answer</text>
    <path d="M250 244 H282" stroke="#8b949e" stroke-width="5" stroke-linecap="round"/>
    <path d="M466 244 H498" stroke="#8b949e" stroke-width="5" stroke-linecap="round"/>
    <path d="M682 244 H714" stroke="#8b949e" stroke-width="5" stroke-linecap="round"/>
    <path d="M898 244 H930" stroke="#8b949e" stroke-width="5" stroke-linecap="round"/>
  </g>
  <text x="70" y="360" fill="#8b949e" font-size="22" font-family="Arial, sans-serif">Internal docs</text>
  <text x="260" y="360" fill="#8b949e" font-size="22" font-family="Arial, sans-serif">Hybrid Search</text>
  <text x="500" y="360" fill="#8b949e" font-size="22" font-family="Arial, sans-serif">Tavily</text>
  <text x="620" y="360" fill="#8b949e" font-size="22" font-family="Arial, sans-serif">Exa</text>
  <text x="760" y="360" fill="#8b949e" font-size="22" font-family="Arial, sans-serif">Rerank</text>
  <text x="900" y="360" fill="#8b949e" font-size="22" font-family="Arial, sans-serif">Citations</text>
</svg>
