<svg xmlns="http://www.w3.org/2000/svg" width="1200" height="675" viewBox="0 0 1200 675" role="img" aria-labelledby="title desc"><title id="title">RedisVL Workflow 2026</title><desc id="desc">Workflow diagram of RedisVL, embeddings, semantic search, and semantic cache.</desc><rect width="1200" height="675" fill="#fff7ed"/><text x="70" y="88" font-size="38" font-family="Segoe UI, Arial, sans-serif" font-weight="700" fill="#9a3412">RedisVL Workflow</text><text x="70" y="124" font-size="20" font-family="Segoe UI, Arial, sans-serif" fill="#c2410c">vector search, semantic cache, AI workflow</text><rect x="70" y="250" width="190" height="110" rx="22" fill="#fff" stroke="#fdba74"/><text x="120" y="298" font-size="28" font-family="Segoe UI, Arial, sans-serif" font-weight="700" fill="#7c2d12">App</text><text x="96" y="328" font-size="18" font-family="Segoe UI, Arial, sans-serif" fill="#9a3412">Python AI service</text><rect x="320" y="200" width="240" height="210" rx="26" fill="#fff" stroke="#fb923c" stroke-width="2"/><text x="396" y="250" font-size="32" font-family="Segoe UI, Arial, sans-serif" font-weight="700" fill="#7c2d12">RedisVL</text><rect x="350" y="280" width="180" height="56" rx="16" fill="#fff7ed" stroke="#fdba74"/><text x="377" y="315" font-size="22" font-family="Segoe UI, Arial, sans-serif" font-weight="700" fill="#c2410c">Embeddings</text><rect x="610" y="170" width="240" height="110" rx="22" fill="#fff" stroke="#fdba74"/><text x="650" y="218" font-size="28" font-family="Segoe UI, Arial, sans-serif" font-weight="700" fill="#7c2d12">Semantic Search</text><text x="652" y="248" font-size="18" font-family="Segoe UI, Arial, sans-serif" fill="#9a3412">nearest vectors</text><rect x="610" y="320" width="240" height="110" rx="22" fill="#fff" stroke="#fdba74"/><text x="650" y="368" font-size="28" font-family="Segoe UI, Arial, sans-serif" font-weight="700" fill="#7c2d12">Semantic Cache</text><text x="653" y="398" font-size="18" font-family="Segoe UI, Arial, sans-serif" fill="#9a3412">reuse similar prompts</text><rect x="930" y="250" width="200" height="110" rx="22" fill="#fff" stroke="#fdba74"/><text x="989" y="298" font-size="28" font-family="Segoe UI, Arial, sans-serif" font-weight="700" fill="#7c2d12">Redis</text><text x="959" y="328" font-size="18" font-family="Segoe UI, Arial, sans-serif" fill="#9a3412">in-memory data layer</text><path d="M260 305 C295 305, 300 305, 320 305" fill="none" stroke="#9a3412" stroke-width="4"/><path d="M560 305 C590 305, 595 250, 610 225" fill="none" stroke="#9a3412" stroke-width="4"/><path d="M560 305 C590 305, 595 375, 610 375" fill="none" stroke="#9a3412" stroke-width="4"/><path d="M850 225 C885 225, 890 290, 930 305" fill="none" stroke="#9a3412" stroke-width="4"/><path d="M850 375 C885 375, 890 320, 930 305" fill="none" stroke="#9a3412" stroke-width="4"/></svg>
