<svg xmlns="http://www.w3.org/2000/svg" width="1200" height="630" viewBox="0 0 1200 630">
  <defs>
    <linearGradient id="bg" x1="0" y1="0" x2="1" y2="1">
      <stop offset="0%" stop-color="#0f172a"/>
      <stop offset="100%" stop-color="#1e293b"/>
    </linearGradient>
  </defs>
  <rect width="1200" height="630" fill="url(#bg)"/>
  <text x="70" y="95" fill="#f8fafc" font-family="Arial, sans-serif" font-size="44" font-weight="700">Reranking Operations</text>
  <text x="70" y="140" fill="#cbd5e1" font-family="Arial, sans-serif" font-size="22">workflow</text>
  <rect x="70" y="220" width="210" height="110" rx="18" fill="#334155" stroke="#94a3b8"/>
  <text x="175" y="270" fill="#fff" font-family="Arial, sans-serif" font-size="22" text-anchor="middle">Retrieve</text>
  <text x="175" y="300" fill="#cbd5e1" font-family="Arial, sans-serif" font-size="16" text-anchor="middle">candidate set</text>
  <rect x="350" y="220" width="210" height="110" rx="18" fill="#475569" stroke="#94a3b8"/>
  <text x="455" y="270" fill="#fff" font-family="Arial, sans-serif" font-size="22" text-anchor="middle">Rerank</text>
  <text x="455" y="300" fill="#cbd5e1" font-family="Arial, sans-serif" font-size="16" text-anchor="middle">cross-encoder</text>
  <rect x="630" y="220" width="210" height="110" rx="18" fill="#64748b" stroke="#94a3b8"/>
  <text x="735" y="270" fill="#fff" font-family="Arial, sans-serif" font-size="22" text-anchor="middle">Select Top-k</text>
  <text x="735" y="300" fill="#cbd5e1" font-family="Arial, sans-serif" font-size="16" text-anchor="middle">context window</text>
  <rect x="910" y="220" width="210" height="110" rx="18" fill="#0ea5e9" stroke="#7dd3fc"/>
  <text x="1015" y="270" fill="#fff" font-family="Arial, sans-serif" font-size="22" text-anchor="middle">LLM Answer</text>
  <text x="1015" y="300" fill="#e0f2fe" font-family="Arial, sans-serif" font-size="16" text-anchor="middle">final response</text>
  <line x1="280" y1="275" x2="350" y2="275" stroke="#e2e8f0" stroke-width="4"/>
  <line x1="560" y1="275" x2="630" y2="275" stroke="#e2e8f0" stroke-width="4"/>
  <line x1="840" y1="275" x2="910" y2="275" stroke="#e2e8f0" stroke-width="4"/>
  <rect x="70" y="390" width="1030" height="130" rx="22" fill="#111827" stroke="#334155"/>
  <text x="100" y="430" fill="#f8fafc" font-family="Arial, sans-serif" font-size="20" font-weight="700">Operational focus</text>
  <text x="100" y="465" fill="#cbd5e1" font-family="Arial, sans-serif" font-size="18">measure recall, rerank latency, and answer quality together</text>
  <text x="100" y="495" fill="#cbd5e1" font-family="Arial, sans-serif" font-size="18">tune top-k and thresholds per query type</text>
</svg>

