<svg xmlns="http://www.w3.org/2000/svg" width="1200" height="630" viewBox="0 0 1200 630">
  <rect width="1200" height="630" fill="#10172a"/>
  <text x="70" y="90" fill="#fff" font-size="42" font-family="Arial, sans-serif" font-weight="700">Retrieval Choice Flow</text>
  <text x="70" y="130" fill="#cbd5e1" font-size="22" font-family="Arial, sans-serif">docs vs web vs hybrid</text>
  <g font-family="Arial, sans-serif" font-size="19" font-weight="700" fill="#fff">
    <rect x="70" y="190" width="190" height="74" rx="18" fill="#1e293b" stroke="#38bdf8" stroke-width="2"/>
    <rect x="290" y="190" width="190" height="74" rx="18" fill="#1e293b" stroke="#38bdf8" stroke-width="2"/>
    <rect x="510" y="190" width="190" height="74" rx="18" fill="#1e293b" stroke="#38bdf8" stroke-width="2"/>
    <rect x="730" y="190" width="190" height="74" rx="18" fill="#1e293b" stroke="#38bdf8" stroke-width="2"/>
    <rect x="950" y="190" width="180" height="74" rx="18" fill="#1e293b" stroke="#38bdf8" stroke-width="2"/>
    <text x="165" y="236" text-anchor="middle">Need freshness?</text>
    <text x="385" y="236" text-anchor="middle">Need policy?</text>
    <text x="605" y="236" text-anchor="middle">Docs</text>
    <text x="825" y="236" text-anchor="middle">Web</text>
    <text x="1040" y="236" text-anchor="middle">Hybrid</text>
    <path d="M260 227 H286" stroke="#94a3b8" stroke-width="5" stroke-linecap="round"/>
    <path d="M480 227 H506" stroke="#94a3b8" stroke-width="5" stroke-linecap="round"/>
    <path d="M700 227 H726" stroke="#94a3b8" stroke-width="5" stroke-linecap="round"/>
    <path d="M920 227 H946" stroke="#94a3b8" stroke-width="5" stroke-linecap="round"/>
  </g>
  <circle cx="180" cy="390" r="76" fill="#3b82f6" opacity="0.18"/>
  <circle cx="420" cy="390" r="76" fill="#22c55e" opacity="0.18"/>
  <circle cx="660" cy="390" r="76" fill="#f59e0b" opacity="0.18"/>
  <circle cx="900" cy="390" r="76" fill="#ef4444" opacity="0.18"/>
  <text x="180" y="395" fill="#fff" font-size="20" text-anchor="middle" font-family="Arial, sans-serif">Docs</text>
  <text x="420" y="395" fill="#fff" font-size="20" text-anchor="middle" font-family="Arial, sans-serif">Tavily</text>
  <text x="660" y="395" fill="#fff" font-size="20" text-anchor="middle" font-family="Arial, sans-serif">Exa</text>
  <text x="900" y="395" fill="#fff" font-size="20" text-anchor="middle" font-family="Arial, sans-serif">Hybrid</text>
</svg>
