<svg xmlns="http://www.w3.org/2000/svg" width="1200" height="630" viewBox="0 0 1200 630">
  <rect width="1200" height="630" fill="#08121f"/>
  <text x="70" y="86" fill="#fff" font-size="42" font-family="Arial, sans-serif" font-weight="700">Routing Architecture</text>
  <text x="70" y="126" fill="#cbd5e1" font-size="22" font-family="Arial, sans-serif">classifier, policy, source adapters, reranker</text>
  <g font-family="Arial, sans-serif" font-size="19" font-weight="700" fill="#fff">
    <rect x="70" y="185" width="180" height="94" rx="18" fill="#142033" stroke="#38bdf8" stroke-width="2"/>
    <rect x="290" y="185" width="180" height="94" rx="18" fill="#142033" stroke="#38bdf8" stroke-width="2"/>
    <rect x="510" y="185" width="180" height="94" rx="18" fill="#142033" stroke="#38bdf8" stroke-width="2"/>
    <rect x="730" y="185" width="180" height="94" rx="18" fill="#142033" stroke="#38bdf8" stroke-width="2"/>
    <rect x="950" y="185" width="180" height="94" rx="18" fill="#142033" stroke="#38bdf8" stroke-width="2"/>
    <text x="160" y="222" text-anchor="middle">Input</text>
    <text x="380" y="222" text-anchor="middle">Classifier</text>
    <text x="600" y="222" text-anchor="middle">Policy</text>
    <text x="820" y="222" text-anchor="middle">Adapters</text>
    <text x="1040" y="222" text-anchor="middle">Rerank</text>
    <path d="M250 232 H286" stroke="#94a3b8" stroke-width="5" stroke-linecap="round"/>
    <path d="M470 232 H506" stroke="#94a3b8" stroke-width="5" stroke-linecap="round"/>
    <path d="M690 232 H726" stroke="#94a3b8" stroke-width="5" stroke-linecap="round"/>
    <path d="M910 232 H946" stroke="#94a3b8" stroke-width="5" stroke-linecap="round"/>
  </g>
  <text x="92" y="370" fill="#93c5fd" font-size="22" font-family="Arial, sans-serif">Hybrid Search</text>
  <text x="320" y="370" fill="#93c5fd" font-size="22" font-family="Arial, sans-serif">Tavily</text>
  <text x="520" y="370" fill="#93c5fd" font-size="22" font-family="Arial, sans-serif">Exa</text>
  <text x="720" y="370" fill="#93c5fd" font-size="22" font-family="Arial, sans-serif">Fallback</text>
  <text x="900" y="370" fill="#93c5fd" font-size="22" font-family="Arial, sans-serif">Answer</text>
</svg>
