<svg width="800" height="450" viewBox="0 0 800 450" xmlns="http://www.w3.org/2000/svg" font-family="'Malgun Gothic', sans-serif">
  <rect width="800" height="450" fill="#F9FAFB" rx="12"/>
  <text x="400" y="35" text-anchor="middle" font-size="17" font-weight="bold" fill="#1F2937">스탠딩 데스크 홈 오피스 셋업 — 엔지니어 1년 사용 후기</text>

  <!-- Left: Health benefits -->
  <rect x="20" y="52" width="230" height="340" fill="white" stroke="#E5E7EB" rx="8"/>
  <rect x="20" y="52" width="230" height="36" fill="#065F46" rx="8"/>
  <rect x="20" y="76" width="230" height="12" fill="#065F46"/>
  <text x="135" y="75" text-anchor="middle" font-size="13" font-weight="bold" fill="white">건강 개선 효과</text>

  <rect x="32" y="100" width="206" height="40" fill="#D1FAE5" stroke="#10B981" rx="4"/>
  <text x="135" y="116" text-anchor="middle" font-size="12" font-weight="bold" fill="#065F46">허리 통증</text>
  <text x="135" y="130" text-anchor="middle" font-size="11" fill="#047857">3개월 후 70% 감소</text>

  <rect x="32" y="146" width="206" height="40" fill="#D1FAE5" stroke="#10B981" rx="4"/>
  <text x="135" y="162" text-anchor="middle" font-size="12" font-weight="bold" fill="#065F46">집중력</text>
  <text x="135" y="176" text-anchor="middle" font-size="11" fill="#047857">오후 슬럼프 현저히 감소</text>

  <rect x="32" y="192" width="206" height="40" fill="#D1FAE5" stroke="#10B981" rx="4"/>
  <text x="135" y="208" text-anchor="middle" font-size="12" font-weight="bold" fill="#065F46">칼로리 소모</text>
  <text x="135" y="222" text-anchor="middle" font-size="11" fill="#047857">일 4시간 서기 = +340kcal</text>

  <rect x="32" y="238" width="206" height="40" fill="#D1FAE5" stroke="#10B981" rx="4"/>
  <text x="135" y="254" text-anchor="middle" font-size="12" font-weight="bold" fill="#065F46">어깨 결림</text>
  <text x="135" y="268" text-anchor="middle" font-size="11" fill="#047857">모니터 높이 조정 후 개선</text>

  <rect x="32" y="284" width="206" height="40" fill="#FEF3C7" stroke="#F59E0B" rx="4"/>
  <text x="135" y="300" text-anchor="middle" font-size="12" font-weight="bold" fill="#92400E">초기 적응 기간</text>
  <text x="135" y="314" text-anchor="middle" font-size="11" fill="#78350F">2-3주 (발바닥 피로)</text>

  <rect x="32" y="330" width="206" height="40" fill="#FEF3C7" stroke="#F59E0B" rx="4"/>
  <text x="135" y="346" text-anchor="middle" font-size="12" font-weight="bold" fill="#92400E">매트 필수</text>
  <text x="135" y="360" text-anchor="middle" font-size="11" fill="#78350F">피로방지 매트 강력 권장</text>

  <!-- Center: Recommended schedule -->
  <rect x="265" y="52" width="270" height="340" fill="white" stroke="#E5E7EB" rx="8"/>
  <rect x="265" y="52" width="270" height="36" fill="#1D4ED8" rx="8"/>
  <rect x="265" y="76" width="270" height="12" fill="#1D4ED8"/>
  <text x="400" y="75" text-anchor="middle" font-size="13" font-weight="bold" fill="white">권장 사용 패턴 (8시간 기준)</text>

  <!-- Timeline -->
  <line x1="350" y1="105" x2="350" y2="375" stroke="#BFDBFE" stroke-width="2"/>

  <circle cx="350" cy="115" r="8" fill="#3B82F6"/>
  <text x="365" y="120" font-size="12" font-weight="bold" fill="#1D4ED8">09:00</text>
  <rect x="280" y="125" width="185" height="28" fill="#DBEAFE" stroke="#3B82F6" rx="4"/>
  <text x="372" y="143" text-anchor="middle" font-size="11" fill="#1E40AF">앉기 시작 (이메일 · 계획)</text>

  <circle cx="350" cy="165" r="8" fill="#10B981"/>
  <text x="365" y="170" font-size="12" font-weight="bold" fill="#065F46">10:30</text>
  <rect x="280" y="175" width="185" height="28" fill="#D1FAE5" stroke="#10B981" rx="4"/>
  <text x="372" y="193" text-anchor="middle" font-size="11" fill="#065F46">서기 전환 (집중 코딩)</text>

  <circle cx="350" cy="215" r="8" fill="#3B82F6"/>
  <text x="365" y="220" font-size="12" font-weight="bold" fill="#1D4ED8">12:00</text>
  <rect x="280" y="225" width="185" height="28" fill="#DBEAFE" stroke="#3B82F6" rx="4"/>
  <text x="372" y="243" text-anchor="middle" font-size="11" fill="#1E40AF">앉기 (점심 · 회의)</text>

  <circle cx="350" cy="265" r="8" fill="#10B981"/>
  <text x="365" y="270" font-size="12" font-weight="bold" fill="#065F46">14:00</text>
  <rect x="280" y="275" width="185" height="28" fill="#D1FAE5" stroke="#10B981" rx="4"/>
  <text x="372" y="293" text-anchor="middle" font-size="11" fill="#065F46">서기 전환 (오후 슬럼프 타파)</text>

  <circle cx="350" cy="315" r="8" fill="#3B82F6"/>
  <text x="365" y="320" font-size="12" font-weight="bold" fill="#1D4ED8">15:30</text>
  <rect x="280" y="325" width="185" height="28" fill="#DBEAFE" stroke="#3B82F6" rx="4"/>
  <text x="372" y="343" text-anchor="middle" font-size="11" fill="#1E40AF">앉기 (코드 리뷰 · 문서)</text>

  <circle cx="350" cy="365" r="8" fill="#10B981"/>
  <text x="365" y="370" font-size="12" font-weight="bold" fill="#065F46">17:00</text>
  <rect x="280" y="355" width="185" height="28" fill="#D1FAE5" stroke="#10B981" rx="4"/>
  <text x="372" y="373" text-anchor="middle" font-size="11" fill="#065F46">서기 마무리 정리</text>

  <!-- Right: Product comparison -->
  <rect x="550" y="52" width="230" height="340" fill="white" stroke="#E5E7EB" rx="8"/>
  <rect x="550" y="52" width="230" height="36" fill="#4C1D95" rx="8"/>
  <rect x="550" y="76" width="230" height="12" fill="#4C1D95"/>
  <text x="665" y="75" text-anchor="middle" font-size="13" font-weight="bold" fill="white">추천 제품 비교</text>

  <rect x="562" y="100" width="206" height="70" fill="#EDE9FE" stroke="#8B5CF6" rx="4"/>
  <text x="665" y="117" text-anchor="middle" font-size="12" font-weight="bold" fill="#4C1D95">Uplift V3</text>
  <text x="665" y="133" text-anchor="middle" font-size="11" fill="#5B21B6">$799~ | 안정성 최고</text>
  <text x="665" y="148" text-anchor="middle" font-size="11" fill="#5B21B6">15년 보증 · 미국산 프레임</text>
  <text x="665" y="163" text-anchor="middle" font-size="10" fill="#7C3AED">★★★★★ 전문가 픽</text>

  <rect x="562" y="178" width="206" height="70" fill="#DBEAFE" stroke="#3B82F6" rx="4"/>
  <text x="665" y="195" text-anchor="middle" font-size="12" font-weight="bold" fill="#1D4ED8">FlexiSpot E7</text>
  <text x="665" y="211" text-anchor="middle" font-size="11" fill="#1E40AF">$399~ | 가성비 추천</text>
  <text x="665" y="226" text-anchor="middle" font-size="11" fill="#1E40AF">충돌방지 · 메모리 4개</text>
  <text x="665" y="241" text-anchor="middle" font-size="10" fill="#2563EB">★★★★☆ 입문자 픽</text>

  <rect x="562" y="256" width="206" height="70" fill="#FEF3C7" stroke="#F59E0B" rx="4"/>
  <text x="665" y="273" text-anchor="middle" font-size="12" font-weight="bold" fill="#92400E">Fezibo 전동</text>
  <text x="665" y="289" text-anchor="middle" font-size="11" fill="#78350F">$150~ | 예산 한정</text>
  <text x="665" y="304" text-anchor="middle" font-size="11" fill="#78350F">기본 기능만 · 60" 200달러</text>
  <text x="665" y="319" text-anchor="middle" font-size="10" fill="#B45309">★★★☆☆ 예산 픽</text>

  <rect x="562" y="334" width="206" height="36" fill="#D1FAE5" stroke="#10B981" rx="4"/>
  <text x="665" y="349" text-anchor="middle" font-size="11" font-weight="bold" fill="#065F46">필수 액세서리</text>
  <text x="665" y="363" text-anchor="middle" font-size="11" fill="#047857">피로방지 매트 + 모니터암</text>

  <text x="400" y="420" text-anchor="middle" font-size="10" fill="#9CA3AF">※ 2026년 3월 기준 | 13년 차 엔지니어 1년 실사용 기반</text>
</svg>
