<svg xmlns="http://www.w3.org/2000/svg" width="1200" height="630" viewBox="0 0 1200 630">
  <rect width="1200" height="630" fill="#111827"/>
  <text x="60" y="92" fill="#f8fafc" font-family="Arial, sans-serif" font-size="42" font-weight="700">System Prompt Design Architecture</text>
  <g font-family="Arial, sans-serif" font-size="20" font-weight="700" fill="#e2e8f0">
    <rect x="72" y="160" width="180" height="88" rx="18" fill="#1d4ed8"/><text x="118" y="211">Policy</text>
    <rect x="282" y="160" width="180" height="88" rx="18" fill="#0f766e"/><text x="328" y="211">Task</text>
    <rect x="492" y="160" width="180" height="88" rx="18" fill="#7c3aed"/><text x="536" y="211">Tools</text>
    <rect x="702" y="160" width="180" height="88" rx="18" fill="#b45309"/><text x="742" y="211">Output</text>
    <rect x="912" y="160" width="180" height="88" rx="18" fill="#be123c"/><text x="948" y="211">Safety</text>
    <rect x="280" y="330" width="640" height="124" rx="28" fill="#0b1120" stroke="#334155" stroke-width="2"/>
    <text x="450" y="382" fill="#f8fafc">Prompt Layer Stack</text>
    <text x="376" y="416" fill="#cbd5e1">policy → task → tool rules → output schema → refusal path</text>
  </g>
  <g stroke="#cbd5e1" stroke-width="5" fill="none" stroke-linecap="round">
    <path d="M252 204h30"/>
    <path d="M462 204h30"/>
    <path d="M672 204h30"/>
    <path d="M882 204h30"/>
    <path d="M600 248v82"/>
  </g>
</svg>
