<svg xmlns="http://www.w3.org/2000/svg" width="1200" height="630" viewBox="0 0 1200 630">
  <rect width="1200" height="630" fill="#0b1120"/>
  <text x="60" y="92" fill="#f8fafc" font-family="Arial, sans-serif" font-size="42" font-weight="700">System Prompt Design Workflow</text>
  <g font-family="Arial, sans-serif" font-size="21" font-weight="700" fill="#0f172a">
    <rect x="76" y="208" width="180" height="92" rx="18" fill="#dbeafe"/><text x="114" y="252">Role</text><text x="108" y="278">Define</text>
    <rect x="284" y="208" width="180" height="92" rx="18" fill="#dcfce7"/><text x="320" y="252">Rules</text><text x="316" y="278">Prioritize</text>
    <rect x="492" y="208" width="180" height="92" rx="18" fill="#fef3c7"/><text x="520" y="252">Tools</text><text x="508" y="278">Constrain</text>
    <rect x="700" y="208" width="180" height="92" rx="18" fill="#e9d5ff"/><text x="722" y="252">Output</text><text x="714" y="278">Structure</text>
    <rect x="908" y="208" width="180" height="92" rx="18" fill="#fecaca"/><text x="942" y="252">Safety</text><text x="926" y="278">Guard</text>
  </g>
  <g stroke="#e2e8f0" stroke-width="6" fill="none" stroke-linecap="round">
    <path d="M256 254h28"/>
    <path d="M464 254h28"/>
    <path d="M672 254h28"/>
    <path d="M880 254h28"/>
  </g>
</svg>
