<svg xmlns="http://www.w3.org/2000/svg" width="1200" height="675" viewBox="0 0 1200 675" role="img" aria-labelledby="title desc">
  <title id="title">Tavus Workflow 2026</title>
  <desc id="desc">Tavus conversational video interface workflow.</desc>
  <defs>
    <linearGradient id="bg" x1="0" y1="0" x2="1" y2="1">
      <stop offset="0%" stop-color="#fdf2f8"/>
      <stop offset="100%" stop-color="#fbcfe8"/>
    </linearGradient>
    <marker id="arrow" markerWidth="10" markerHeight="10" refX="8" refY="5" orient="auto">
      <path d="M0,0 L10,5 L0,10 z" fill="#be185d"/>
    </marker>
  </defs>
  <rect width="1200" height="675" fill="url(#bg)"/>
  <text x="70" y="88" font-size="38" font-family="Segoe UI, Arial, sans-serif" font-weight="700" fill="#9d174d">Tavus Workflow</text>
  <rect x="80" y="220" width="220" height="110" rx="24" fill="#fff" stroke="#f9a8d4"/>
  <text x="132" y="280" font-size="28" font-family="Segoe UI, Arial, sans-serif" font-weight="700" fill="#9d174d">Persona</text>
  <rect x="360" y="150" width="480" height="360" rx="28" fill="#fff" stroke="#ec4899" stroke-width="2"/>
  <text x="550" y="205" font-size="34" font-family="Segoe UI, Arial, sans-serif" font-weight="700" fill="#9d174d">Tavus</text>
  <rect x="410" y="250" width="160" height="82" rx="18" fill="#fdf2f8" stroke="#f9a8d4"/>
  <text x="450" y="300" font-size="24" font-family="Segoe UI, Arial, sans-serif" font-weight="700" fill="#be185d">Replica</text>
  <rect x="620" y="250" width="160" height="82" rx="18" fill="#fdf2f8" stroke="#f9a8d4"/>
  <text x="636" y="300" font-size="24" font-family="Segoe UI, Arial, sans-serif" font-weight="700" fill="#be185d">Conversation</text>
  <rect x="410" y="370" width="160" height="82" rx="18" fill="#fdf2f8" stroke="#f9a8d4"/>
  <text x="448" y="410" font-size="22" font-family="Segoe UI, Arial, sans-serif" font-weight="700" fill="#be185d">Memories</text>
  <text x="449" y="437" font-size="18" font-family="Segoe UI, Arial, sans-serif" fill="#be185d">context</text>
  <rect x="620" y="370" width="160" height="82" rx="18" fill="#fdf2f8" stroke="#f9a8d4"/>
  <text x="649" y="410" font-size="22" font-family="Segoe UI, Arial, sans-serif" font-weight="700" fill="#be185d">React UI</text>
  <text x="650" y="437" font-size="18" font-family="Segoe UI, Arial, sans-serif" fill="#be185d">component</text>
  <rect x="900" y="220" width="220" height="110" rx="24" fill="#fff" stroke="#f9a8d4"/>
  <text x="955" y="280" font-size="28" font-family="Segoe UI, Arial, sans-serif" font-weight="700" fill="#9d174d">Users</text>
  <path d="M300 275 C330 275, 340 275, 360 275" fill="none" stroke="#be185d" stroke-width="4" marker-end="url(#arrow)"/>
  <path d="M840 275 C870 275, 880 275, 900 275" fill="none" stroke="#be185d" stroke-width="4" marker-end="url(#arrow)"/>
</svg>
