<svg xmlns="http://www.w3.org/2000/svg" width="1200" height="675" viewBox="0 0 1200 675"><rect width="1200" height="675" fill="#eff6ff"/><text x="70" y="90" font-size="38" font-family="Segoe UI, Arial, sans-serif" font-weight="700" fill="#1d4ed8">Turso Workflow</text><rect x="80" y="220" width="220" height="110" rx="24" fill="#fff" stroke="#93c5fd"/><text x="140" y="280" font-size="28" font-family="Segoe UI, Arial, sans-serif" font-weight="700" fill="#1e3a8a">App / Edge</text><rect x="360" y="150" width="480" height="360" rx="28" fill="#fff" stroke="#60a5fa"/><text x="545" y="205" font-size="34" font-family="Segoe UI, Arial, sans-serif" font-weight="700" fill="#1e3a8a">Turso</text><rect x="415" y="250" width="160" height="82" rx="18" fill="#eff6ff" stroke="#93c5fd"/><text x="453" y="300" font-size="24" font-family="Segoe UI, Arial, sans-serif" font-weight="700" fill="#2563eb">libSQL</text><rect x="625" y="250" width="160" height="82" rx="18" fill="#eff6ff" stroke="#93c5fd"/><text x="661" y="300" font-size="24" font-family="Segoe UI, Arial, sans-serif" font-weight="700" fill="#2563eb">Cloud</text><rect x="415" y="370" width="160" height="82" rx="18" fill="#eff6ff" stroke="#93c5fd"/><text x="453" y="410" font-size="22" font-family="Segoe UI, Arial, sans-serif" font-weight="700" fill="#2563eb">SQLite</text><text x="455" y="437" font-size="18" font-family="Segoe UI, Arial, sans-serif" fill="#2563eb">compatible</text><rect x="625" y="370" width="160" height="82" rx="18" fill="#eff6ff" stroke="#93c5fd"/><text x="650" y="410" font-size="22" font-family="Segoe UI, Arial, sans-serif" font-weight="700" fill="#2563eb">Vector</text><text x="649" y="437" font-size="18" font-family="Segoe UI, Arial, sans-serif" fill="#2563eb">search</text><rect x="900" y="220" width="220" height="110" rx="24" fill="#fff" stroke="#93c5fd"/><text x="954" y="280" font-size="28" font-family="Segoe UI, Arial, sans-serif" font-weight="700" fill="#1e3a8a">AI Apps</text><path d="M300 275 C330 275, 340 275, 360 275" fill="none" stroke="#2563eb" stroke-width="4"/><path d="M840 275 C870 275, 880 275, 900 275" fill="none" stroke="#2563eb" stroke-width="4"/></svg>
