<svg xmlns="http://www.w3.org/2000/svg" width="1200" height="630" viewBox="0 0 1200 630">
  <defs>
    <linearGradient id="ubg" x1="0" y1="0" x2="1" y2="1">
      <stop offset="0%" stop-color="#1e1b4b"/>
      <stop offset="100%" stop-color="#0f172a"/>
    </linearGradient>
    <marker id="ua" markerWidth="10" markerHeight="10" refX="9" refY="3" orient="auto">
      <path d="M0,0 L0,6 L9,3 z" fill="#f472b6"/>
    </marker>
  </defs>
  <rect width="1200" height="630" fill="url(#ubg)"/>
  <text x="56" y="88" fill="#e0e7ff" font-size="36" font-family="Segoe UI, Malgun Gothic, sans-serif" font-weight="700">UPS · 전력 이벤트 런북</text>
  <text x="56" y="132" fill="#a5b4fc" font-size="20" font-family="Segoe UI, Malgun Gothic, sans-serif">온배터리 · 런타임 · 셧다운 순서</text>
  <rect x="56" y="168" width="1088" height="446" rx="18" fill="#111827" stroke="#6366f1" stroke-opacity="0.5"/>
  <rect x="96" y="208" width="200" height="120" rx="12" fill="#312e81" stroke="#818cf8"/>
  <text x="136" y="258" fill="#e0e7ff" font-size="18" font-family="Segoe UI, sans-serif" font-weight="600">Utility</text>
  <text x="120" y="290" fill="#c7d2fe" font-size="14" font-family="Segoe UI, Malgun Gothic, sans-serif">시내 전원</text>
  <line x1="296" y1="268" x2="360" y2="268" stroke="#f472b6" stroke-width="3" marker-end="url(#ua)"/>
  <rect x="360" y="208" width="220" height="120" rx="12" fill="#4c1d95" stroke="#c084fc"/>
  <text x="400" y="252" fill="#fae8ff" font-size="18" font-family="Segoe UI, sans-serif" font-weight="600">UPS</text>
  <text x="380" y="284" fill="#e9d5ff" font-size="14" font-family="Segoe UI, Malgun Gothic, sans-serif">런타임·부하율</text>
  <line x1="580" y1="268" x2="644" y2="268" stroke="#f472b6" stroke-width="3" marker-end="url(#ua)"/>
  <rect x="644" y="200" width="160" height="64" rx="10" fill="#1e293b" stroke="#38bdf8"/>
  <text x="672" y="240" fill="#e0f2fe" font-size="14" font-family="Segoe UI, sans-serif">Switch</text>
  <rect x="644" y="276" width="160" height="64" rx="10" fill="#1e293b" stroke="#38bdf8"/>
  <text x="688" y="316" fill="#e0f2fe" font-size="14" font-family="Segoe UI, sans-serif">NAS</text>
  <rect x="828" y="200" width="160" height="64" rx="10" fill="#1e293b" stroke="#38bdf8"/>
  <text x="848" y="240" fill="#e0f2fe" font-size="14" font-family="Segoe UI, sans-serif">Host</text>
  <rect x="828" y="276" width="160" height="64" rx="10" fill="#1e293b" stroke="#38bdf8"/>
  <text x="868" y="316" fill="#e0f2fe" font-size="14" font-family="Segoe UI, sans-serif">VM</text>
  <line x1="724" y1="232" x2="828" y2="232" stroke="#94a3b8" stroke-width="2"/>
  <line x1="724" y1="308" x2="828" y2="308" stroke="#94a3b8" stroke-width="2"/>
  <line x1="804" y1="232" x2="804" y2="276" stroke="#94a3b8" stroke-width="2"/>
  <line x1="804" y1="308" x2="804" y2="340" stroke="#94a3b8" stroke-width="2"/>
  <rect x="96" y="360" width="500" height="220" rx="12" fill="#0c1222" stroke="#475569"/>
  <text x="120" y="404" fill="#f1f5f9" font-size="17" font-family="Segoe UI, Malgun Gothic, sans-serif" font-weight="600">온배터리 시퀀스</text>
  <text x="120" y="442" fill="#cbd5e1" font-size="15" font-family="Segoe UI, Malgun Gothic, sans-serif">1. 잔여 시간 확인 · 비필요 부하 제거</text>
  <text x="120" y="472" fill="#cbd5e1" font-size="15" font-family="Segoe UI, Malgun Gothic, sans-serif">2. VM 정지 · NAS 동기화 신호</text>
  <text x="120" y="502" fill="#cbd5e1" font-size="15" font-family="Segoe UI, Malgun Gothic, sans-serif">3. 호스트·스위치 순서 종료</text>
  <text x="120" y="542" fill="#f472b6" font-size="14" font-family="Segoe UI, Malgun Gothic, sans-serif">복전 후: 스위치 → NAS → 호스트 순 기동</text>
  <rect x="620" y="360" width="484" height="220" rx="12" fill="#0c1222" stroke="#475569"/>
  <text x="644" y="404" fill="#f1f5f9" font-size="17" font-family="Segoe UI, Malgun Gothic, sans-serif" font-weight="600">정기 점검</text>
  <text x="644" y="442" fill="#cbd5e1" font-size="15" font-family="Segoe UI, Malgun Gothic, sans-serif">· 분기 실부하 런타임 재측정</text>
  <text x="644" y="472" fill="#cbd5e1" font-size="15" font-family="Segoe UI, Malgun Gothic, sans-serif">· 배터리 교체 주기 알림</text>
  <text x="644" y="502" fill="#cbd5e1" font-size="15" font-family="Segoe UI, Malgun Gothic, sans-serif">· NUT 에이전트 드릴</text>
  <text x="644" y="542" fill="#94a3b8" font-size="13" font-family="Segoe UI, Malgun Gothic, sans-serif">전력은 장비 한 대가 아니라 경로 전체</text>
</svg>
