<svg viewBox="0 0 800 750" xmlns="http://www.w3.org/2000/svg">
  <rect width="800" height="750" fill="#f8f9fa"/>

  <defs>
    <marker id="arrowhead" markerWidth="8" markerHeight="6" refX="8" refY="3" orient="auto">
      <polygon points="0 0, 8 3, 0 6" fill="#2D3748"/>
    </marker>
    <filter id="shadow" x="-2%" y="-2%" width="104%" height="104%">
      <feDropShadow dx="1" dy="2" stdDeviation="2" flood-opacity="0.1"/>
    </filter>
  </defs>

  <style>
    .title { font-family: Arial, sans-serif; font-size: 22px; font-weight: bold; fill: #2D3748; text-anchor: middle; }
    .label { font-family: Arial, sans-serif; font-size: 14px; fill: #fff; text-anchor: middle; dominant-baseline: middle; }
    .label-dark { font-family: Arial, sans-serif; font-size: 14px; fill: #2D3748; text-anchor: middle; dominant-baseline: middle; }
    .branch-label { font-family: Arial, sans-serif; font-size: 13px; font-weight: bold; fill: #2D3748; }
    .arrow { stroke: #2D3748; stroke-width: 2; fill: none; marker-end: url(#arrowhead); }
  </style>

  <!-- Title -->
  <text x="400" y="40" class="title">Pre-commit Hook Workflow</text>

  <!-- 1. Developer runs git commit -->
  <ellipse cx="400" cy="90" rx="130" ry="28" fill="#50C878" filter="url(#shadow)"/>
  <text x="400" y="90" class="label">Developer runs git commit</text>

  <path class="arrow" d="M 400 118 L 400 155"/>

  <!-- 2. Pre-commit hook triggers -->
  <rect x="290" y="155" width="220" height="55" rx="8" fill="#4A90D9" filter="url(#shadow)"/>
  <text x="400" y="183" class="label">Pre-commit hook triggers</text>

  <path class="arrow" d="M 400 210 L 400 245"/>

  <!-- 3. Scan staged files -->
  <rect x="290" y="245" width="220" height="55" rx="8" fill="#4A90D9" filter="url(#shadow)"/>
  <text x="400" y="273" class="label">Scan staged files</text>

  <path class="arrow" d="M 400 300 L 400 345"/>

  <!-- 4. Sensitive data found? -->
  <polygon points="400,345 510,410 400,475 290,410" fill="#FFD93D" stroke="#e6c235" stroke-width="1" filter="url(#shadow)"/>
  <text x="400" y="403" class="label-dark" font-size="13">Sensitive data</text>
  <text x="400" y="420" class="label-dark" font-size="13">pattern found?</text>

  <!-- Branch: No (right) -->
  <path class="arrow" d="M 510 410 L 570 410"/>
  <text x="540" y="398" class="branch-label">No</text>

  <!-- 5a. Proceed with commit -->
  <rect x="570" y="383" width="180" height="55" rx="8" fill="#4A90D9" filter="url(#shadow)"/>
  <text x="660" y="411" class="label">Proceed with commit</text>

  <path class="arrow" d="M 660 438 L 660 480"/>

  <!-- 6a. Commit successful -->
  <ellipse cx="660" cy="510" rx="110" ry="28" fill="#50C878" filter="url(#shadow)"/>
  <text x="660" y="510" class="label">Commit successful</text>

  <!-- Branch: Yes (down) -->
  <path class="arrow" d="M 400 475 L 400 520"/>
  <text x="418" y="500" class="branch-label">Yes</text>

  <!-- 5b. Abort + warning -->
  <rect x="290" y="520" width="220" height="55" rx="8" fill="#FF6B6B" filter="url(#shadow)"/>
  <text x="400" y="548" class="label">Abort commit + warning</text>

  <path class="arrow" d="M 400 575 L 400 615"/>

  <!-- 6b. Developer removes sensitive data -->
  <rect x="270" y="615" width="260" height="55" rx="8" fill="#6C5CE7" filter="url(#shadow)"/>
  <text x="400" y="643" class="label">Remove sensitive data</text>

  <!-- Retry arrow -->
  <path class="arrow" d="M 270 643 L 200 643 L 200 90 L 270 90"/>
  <text x="188" y="400" class="branch-label" text-anchor="end">Retry</text>
</svg>
