<svg viewBox="0 0 800 500" xmlns="http://www.w3.org/2000/svg" font-family="Arial, sans-serif">
  <style>
    .background {
      fill: #f8f9fa;
    }
    .stage-box {
      fill: #ffffff;
      stroke: #e0e0e0;
      stroke-width: 1;
      rx: 8;
      ry: 8;
      filter: drop-shadow(0 2px 4px rgba(0,0,0,0.1));
    }
    .stage-label {
      font-size: 14px;
      font-weight: bold;
      fill: #2D3748;
      text-anchor: middle;
    }
    .arrow-path {
      fill: none;
      stroke: #2D3748;
      stroke-width: 2;
      marker-end: url(#arrowhead);
    }
    .arrow-label {
      font-size: 12px;
      fill: #2D3748;
      text-anchor: middle;
    }
    .progress-circle {
      fill: #4A90D9;
      stroke: #ffffff;
      stroke-width: 1;
    }
    .progress-number {
      font-size: 10px;
      font-weight: bold;
      fill: #ffffff;
      text-anchor: middle;
      dominant-baseline: central;
    }
    .icon {
      fill: #4A90D9; /* Default icon color */
    }
    .icon-filter {
        fill: #50C878;
    }
    .icon-ai {
        fill: #6C5CE7;
    }
    .icon-exclude {
        fill: #D9534F; /* Red for exclusion */
    }
  </style>

  <defs>
    <marker id="arrowhead" markerWidth="10" markerHeight="7" refX="10" refY="3.5" orient="auto">
      <polygon points="0 0, 10 3.5, 0 7" fill="#2D3748" />
    </marker>
  </defs>

  <!-- Background -->
  <rect x="0" y="0" width="800" height="500" class="background" />

  <!-- Stages -->
  <!-- Stage 1: Project Files -->
  <rect x="50" y="190" width="160" height="120" class="stage-box" />
  <!-- Folder Icon -->
  <path class="icon" d="M120 210h-60c-2.2 0-4 1.8-4 4v40c0 2.2 1.8 4 4 4h60c2.2 0 4-1.8 4-4v-40c0-2.2-1.8-4-4-4zM110 200h-40c-2.2 0-4 1.8-4 4v6h48v-6c0-2.2-1.8-4-4-4z" transform="translate(0, 0)" />
  <text x="130" y="280" class="stage-label">
    <tspan x="130" dy="0">Project Files</tspan>
  </text>

  <!-- Stage 2: Read Files &amp; .cursorignore -->
  <rect x="250" y="190" width="160" height="120" class="stage-box" />
  <!-- Magnifying Glass + Document Icon -->
  <path class="icon" d="M300 205c-5.5 0-10 4.5-10 10s4.5 10 10 10 10-4.5 10-10-4.5-10-10-10zm15.9 15.9l8.6 8.6c.4.4.4 1 0 1.4l-1.4 1.4c-.4.4-1 .4-1.4 0l-8.6-8.6c-2.7 2.1-6.1 3.4-9.9 3.4-8.3 0-15-6.7-15-15s6.7-15 15-15 15 6.7 15 15c0 3.8-1.3 7.2-3.4 9.9z M320 205h-20c-1.1 0-2 .9-2 2v6c0 1.1.9 2 2 2h20c1.1 0 2-.9 2-2v-6c0-1.1-.9-2-2-2z" transform="scale(0.8) translate(60, 50)" />
  <text x="330" y="280" class="stage-label">
    <tspan x="330" dy="0">Read Files &amp;</tspan>
    <tspan x="330" dy="16">.cursorignore</tspan>
  </text>

  <!-- Stage 3: Filter Files -->
  <rect x="450" y="190" width="160" height="120" class="stage-box" />
  <!-- Filter Icon -->
  <path class="icon icon-filter" d="M530 205c-1.1 0-2 .9-2 2v10.2l-10.9-12.2c-.4-.4-1-.4-1.4 0l-1.4 1.4c-.4.4-.4 1 0 1.4l12.2 13.6h-21.5c-1.1 0-2 .9-2 2v2c0 1.1.9 2 2 2h21.5l-12.2 13.6c-.4.4-.4 1 0 1.4l1.4 1.4c.4.4 1 .4 1.4 0l10.9-12.2v10.2c0 1.1.9 2 2 2h2c1.1 0 2-.9 2-2v-10.2l10.9 12.2c.4.4 1 .4 1.4 0l1.4-1.4c.4-.4.4-1 0-1.4l-12.2-13.6h21.5c1.1 0 2-.9 2-2v-2c0-1.1-.9-2-2-2h-21.5l12.2-13.6c.4-.4.4-1 0-1.4l-1.4-1.4c-.4-.4-1-.4-1.4 0l-10.9 12.2v-10.2c0-1.1-.9-2-2-2h-2z" transform="scale(0.8) translate(100, 50)" />
  <text x="530" y="280" class="stage-label">
    <tspan x="530" dy="0">Filter Files</tspan>
  </text>

  <!-- Stage 4: AI Context Building -->
  <rect x="650" y="190" width="160" height="120" class="stage-box" />
  <!-- Brain Icon -->
  <path class="icon icon-ai" d="M730 205c-11.8 0-21.4 9.1-21.9 20.6-.1.6-.1 1.2-.1 1.8 0 12.4 10.1 22.5 22.5 22.5 12.4 0 22.5-10.1 22.5-22.5 0-1.6-.2-3.1-.5-4.6-2.9-10.6-12.8-18.3-24.5-18.3zm-10 10c-1.1 0-2 .9-2 2v2c0 1.1.9 2 2 2h2c1.1 0 2-.9 2-2v-2c0-1.1-.9-2-2-2h-2zm-10 10c-1.1 0-2 .9-2 2v2c0 1.1.9 2 2 2h2c1.1 0 2-.9 2-2v-2c0-1.1-.9-2-2-2h-2zm20 0c-1.1 0-2 .9-2 2v2c0 1.1.9 2 2 2h2c1.1 0 2-.9 2-2v-2c0-1.1-.9-2-2-2h-2zm-10 10c-1.1 0-2 .9-2 2v2c0 1.1.9 2 2 2h2c1.1 0 2-.9 2-2v-2c0-1.1-.9-2-2-2h-2z" transform="scale(0.8) translate(140, 50)" />
  <text x="730" y="280" class="stage-label">
    <tspan x="730" dy="0">AI Context</tspan>
    <tspan x="730" dy="16">Building</tspan>
  </text>

  <!-- Stage 5: Excluded Files -->
  <rect x="450" y="350" width="160" height="120" class="stage-box" />
  <!-- Exclude Icon (X mark) -->
  <path class="icon icon-exclude" d="M530 365l-10 10 10 10c.4.4.4 1 0 1.4l-1.4 1.4c-.4.4-1 .4-1.4 0l-10-10-10 10c-.4.4-1 .4-1.4 0l-1.4-1.4c-.4-.4-.4-1 0-1.4l10-10-10-10c-.4-.4-.4-1 0-1.4l1.4-1.4c.4-.4 1-.4 1.4 0l10 10 10-10c.4-.4 1-.4 1.4 0l1.4 1.4c.4.4.4 1 0 1.4z" transform="scale(0.8) translate(100, 80)" />
  <text x="530" y="440" class="stage-label">
    <tspan x="530" dy="0">Excluded Files</tspan>
  </text>

  <!-- Progress Indicators -->
  <circle cx="130" cy="175" r="10" class="progress-circle" />
  <text x="130" y="175" class="progress-number">1</text>
  <circle cx="330" cy="175" r="10" class="progress-circle" />
  <text x="330" y="175" class="progress-number">2</text>
  <circle cx="530" cy="175" r="10" class="progress-circle" />
  <text x="530" y="175" class="progress-number">3</text>
  <circle cx="730" cy="175" r="10" class="progress-circle" />
  <text x="730" y="175" class="progress-number">4</text>

  <!-- Arrows -->
  <!-- Arrow 1: Project Files -> Read Files &amp; .cursorignore -->
  <path d="M210 250 H250" class="arrow-path" />
  <text x="230" y="240" class="arrow-label">Raw Files</text>

  <!-- Arrow 2: Read Files &amp; .cursorignore -> Filter Files -->
  <path d="M410 250 H450" class="arrow-path" />
  <text x="430" y="240" class="arrow-label">All Project Files</text>

  <!-- Arrow 3: Filter Files -> AI Context Building (Allowed Files) -->
  <path d="M610 250 H650" class="arrow-path" />
  <text x="630" y="240" class="arrow-label">Allowed Files</text>

  <!-- Arrow 4: Filter Files -> Excluded Files (Ignored Files) -->
  <path d="M530 310 V350" class="arrow-path" />
  <text x="540" y="330" class="arrow-label">Ignored Files</text>

</svg>