<svg viewBox="0 0 800 550" xmlns="http://www.w3.org/2000/svg">
  <rect width="800" height="550" fill="#f8f9fa"/>

  <defs>
    <marker id="arrowhead" markerWidth="8" markerHeight="6" refX="8" refY="3" orient="auto">
      <polygon points="0 0, 8 3, 0 6" fill="#2D3748"/>
    </marker>
    <marker id="arrowhead-red" markerWidth="8" markerHeight="6" refX="8" refY="3" orient="auto">
      <polygon points="0 0, 8 3, 0 6" fill="#FF6B6B"/>
    </marker>
    <filter id="shadow" x="-2%" y="-2%" width="104%" height="104%">
      <feDropShadow dx="1" dy="2" stdDeviation="2" flood-opacity="0.1"/>
    </filter>
  </defs>

  <style>
    .title { font-family: Arial, sans-serif; font-size: 22px; font-weight: bold; fill: #2D3748; text-anchor: middle; }
    .label { font-family: Arial, sans-serif; font-size: 14px; fill: #fff; text-anchor: middle; dominant-baseline: middle; }
    .label-dark { font-family: Arial, sans-serif; font-size: 14px; fill: #2D3748; text-anchor: middle; dominant-baseline: middle; }
    .label-sm { font-family: Arial, sans-serif; font-size: 12px; fill: #2D3748; text-anchor: middle; dominant-baseline: middle; }
    .arrow { stroke: #2D3748; stroke-width: 2; fill: none; marker-end: url(#arrowhead); }
    .file-box { fill: #fff; stroke: #D3DCE6; stroke-width: 1; rx: 6; }
  </style>

  <!-- Title -->
  <text x="400" y="40" class="title">AI Assistant File Access Control (.cursorignore)</text>

  <!-- Project files area -->
  <rect x="30" y="80" width="180" height="200" rx="10" fill="#E8F4FD" stroke="#4A90D9" stroke-width="2" filter="url(#shadow)"/>
  <text x="120" y="105" class="label-dark" font-weight="bold">Project Files</text>

  <rect x="50" y="120" width="140" height="28" class="file-box"/>
  <text x="120" y="134" class="label-sm">src/main.py</text>
  <rect x="50" y="155" width="140" height="28" class="file-box"/>
  <text x="120" y="169" class="label-sm">config/settings.yaml</text>
  <rect x="50" y="190" width="140" height="28" class="file-box"/>
  <text x="120" y="204" class="label-sm">.env (secrets)</text>
  <rect x="50" y="225" width="140" height="28" class="file-box"/>
  <text x="120" y="239" class="label-sm">credentials.json</text>

  <path class="arrow" d="M 210 180 L 280 180"/>

  <!-- .cursorignore filter -->
  <rect x="280" y="120" width="200" height="120" rx="10" fill="#50C878" stroke="#3da864" stroke-width="2" filter="url(#shadow)"/>
  <text x="380" y="155" class="label" font-weight="bold">.cursorignore</text>
  <text x="380" y="175" class="label" font-size="12">Filtering</text>
  <line x1="300" y1="195" x2="460" y2="195" stroke="#fff" stroke-width="1" stroke-opacity="0.5"/>
  <text x="380" y="215" class="label" font-size="11">.env</text>
  <text x="380" y="230" class="label" font-size="11">credentials.json</text>

  <!-- Allowed (right) -->
  <path class="arrow" d="M 480 160 L 560 160"/>
  <rect x="505" y="138" width="45" height="20" fill="#f8f9fa" rx="3"/>
  <text x="527" y="152" class="label-sm" fill="#50C878" font-weight="bold">Allow</text>

  <!-- Blocked (down) -->
  <path d="M 380 240 L 380 330" stroke="#FF6B6B" stroke-width="2" fill="none" marker-end="url(#arrowhead-red)"/>
  <rect x="355" y="275" width="50" height="20" fill="#f8f9fa" rx="3"/>
  <text x="380" y="289" class="label-sm" fill="#FF6B6B" font-weight="bold">Block</text>

  <!-- AI Assistant -->
  <rect x="560" y="100" width="200" height="120" rx="10" fill="#4A90D9" stroke="#3a7bc0" stroke-width="2" filter="url(#shadow)"/>
  <text x="660" y="140" class="label" font-weight="bold">AI Assistant</text>
  <text x="660" y="162" class="label" font-size="12">Context Building</text>
  <line x1="580" y1="180" x2="740" y2="180" stroke="#fff" stroke-width="1" stroke-opacity="0.5"/>
  <text x="660" y="200" class="label" font-size="11">src/main.py ✓</text>
  <text x="660" y="215" class="label" font-size="11">config/settings.yaml ✓</text>

  <!-- Blocked files -->
  <rect x="280" y="330" width="200" height="90" rx="10" fill="#FFE0E0" stroke="#FF6B6B" stroke-width="2" filter="url(#shadow)"/>
  <text x="380" y="360" class="label-dark" font-weight="bold" fill="#FF6B6B">Access Blocked</text>
  <text x="380" y="385" class="label-sm">.env (secrets) ✗</text>
  <text x="380" y="403" class="label-sm">credentials.json ✗</text>

  <!-- AI → Code suggestions -->
  <path class="arrow" d="M 660 220 L 660 310"/>

  <rect x="560" y="310" width="200" height="70" rx="10" fill="#6C5CE7" filter="url(#shadow)"/>
  <text x="660" y="340" class="label" font-weight="bold">Code Suggestions</text>
  <text x="660" y="358" class="label" font-size="11">Safe, without sensitive data</text>

  <!-- Legend -->
  <rect x="30" y="470" width="740" height="50" rx="8" fill="#fff" stroke="#D3DCE6" stroke-width="1"/>
  <rect x="50" y="485" width="16" height="16" rx="3" fill="#50C878"/>
  <text x="75" y="497" class="label-sm" text-anchor="start">Allowed files</text>
  <rect x="200" y="485" width="16" height="16" rx="3" fill="#FF6B6B"/>
  <text x="225" y="497" class="label-sm" text-anchor="start">Blocked files</text>
  <rect x="370" y="485" width="16" height="16" rx="3" fill="#4A90D9"/>
  <text x="395" y="497" class="label-sm" text-anchor="start">AI processing</text>
  <rect x="540" y="485" width="16" height="16" rx="3" fill="#6C5CE7"/>
  <text x="565" y="497" class="label-sm" text-anchor="start">Output</text>
</svg>
