<svg xmlns="http://www.w3.org/2000/svg" viewBox="0 0 800 500">
  <rect width="800" height="500" fill="#f8f9fa"/>
  <text x="400" y="36" text-anchor="middle" font-family="Arial, sans-serif" font-size="20" font-weight="bold" fill="#2c3e50">AI Deep Research Platform Comparison</text>
  <text x="400" y="58" text-anchor="middle" font-family="Arial, sans-serif" font-size="13" fill="#7f8c8d">Perplexity · Gemini · ChatGPT · Claude — Key Metrics</text>

  <rect x="30" y="78" width="160" height="36" rx="6" fill="#ecf0f1"/>
  <text x="110" y="101" text-anchor="middle" font-family="Arial, sans-serif" font-size="12" font-weight="bold" fill="#7f8c8d">Metric</text>
  <rect x="198" y="78" width="138" height="36" rx="6" fill="#20808d"/>
  <text x="267" y="101" text-anchor="middle" font-family="Arial, sans-serif" font-size="12" font-weight="bold" fill="#fff">Perplexity</text>
  <rect x="344" y="78" width="138" height="36" rx="6" fill="#4285f4"/>
  <text x="413" y="101" text-anchor="middle" font-family="Arial, sans-serif" font-size="12" font-weight="bold" fill="#fff">Gemini</text>
  <rect x="490" y="78" width="138" height="36" rx="6" fill="#10a37f"/>
  <text x="559" y="101" text-anchor="middle" font-family="Arial, sans-serif" font-size="12" font-weight="bold" fill="#fff">ChatGPT</text>
  <rect x="636" y="78" width="134" height="36" rx="6" fill="#c05b27"/>
  <text x="703" y="101" text-anchor="middle" font-family="Arial, sans-serif" font-size="12" font-weight="bold" fill="#fff">Claude</text>

  <rect x="30" y="122" width="160" height="40" rx="4" fill="#fff" stroke="#ecf0f1" stroke-width="1"/>
  <text x="110" y="147" text-anchor="middle" font-family="Arial, sans-serif" font-size="12" fill="#2c3e50">Base Model</text>
  <rect x="198" y="122" width="138" height="40" rx="4" fill="#f0fafb" stroke="#ecf0f1" stroke-width="1"/>
  <text x="267" y="147" text-anchor="middle" font-family="Arial, sans-serif" font-size="11" fill="#2c3e50">Own model + web</text>
  <rect x="344" y="122" width="138" height="40" rx="4" fill="#f0f4ff" stroke="#ecf0f1" stroke-width="1"/>
  <text x="413" y="147" text-anchor="middle" font-family="Arial, sans-serif" font-size="11" fill="#2c3e50">Gemini 2.5 Pro</text>
  <rect x="490" y="122" width="138" height="40" rx="4" fill="#f0fdf4" stroke="#ecf0f1" stroke-width="1"/>
  <text x="559" y="147" text-anchor="middle" font-family="Arial, sans-serif" font-size="11" fill="#2c3e50">GPT-4.1 + o3</text>
  <rect x="636" y="122" width="134" height="40" rx="4" fill="#fff8f5" stroke="#ecf0f1" stroke-width="1"/>
  <text x="703" y="147" text-anchor="middle" font-family="Arial, sans-serif" font-size="11" fill="#2c3e50">Claude 3.7 Sonnet</text>

  <rect x="30" y="170" width="160" height="40" rx="4" fill="#fff" stroke="#ecf0f1" stroke-width="1"/>
  <text x="110" y="195" text-anchor="middle" font-family="Arial, sans-serif" font-size="12" fill="#2c3e50">Speed</text>
  <rect x="198" y="170" width="138" height="40" rx="4" fill="#f0fafb" stroke="#ecf0f1" stroke-width="1"/>
  <text x="267" y="195" text-anchor="middle" font-family="Arial, sans-serif" font-size="13" font-weight="bold" fill="#20808d">3–5 min ⚡</text>
  <rect x="344" y="170" width="138" height="40" rx="4" fill="#f0f4ff" stroke="#ecf0f1" stroke-width="1"/>
  <text x="413" y="195" text-anchor="middle" font-family="Arial, sans-serif" font-size="13" fill="#4285f4">5–10 min</text>
  <rect x="490" y="170" width="138" height="40" rx="4" fill="#f0fdf4" stroke="#ecf0f1" stroke-width="1"/>
  <text x="559" y="195" text-anchor="middle" font-family="Arial, sans-serif" font-size="13" fill="#10a37f">5–15 min</text>
  <rect x="636" y="170" width="134" height="40" rx="4" fill="#fff8f5" stroke="#ecf0f1" stroke-width="1"/>
  <text x="703" y="195" text-anchor="middle" font-family="Arial, sans-serif" font-size="13" fill="#c05b27">5–12 min</text>

  <rect x="30" y="218" width="160" height="40" rx="4" fill="#fff" stroke="#ecf0f1" stroke-width="1"/>
  <text x="110" y="243" text-anchor="middle" font-family="Arial, sans-serif" font-size="12" fill="#2c3e50">Sources</text>
  <rect x="198" y="218" width="138" height="40" rx="4" fill="#f0fafb" stroke="#ecf0f1" stroke-width="1"/>
  <text x="267" y="243" text-anchor="middle" font-family="Arial, sans-serif" font-size="13" fill="#20808d">20–50</text>
  <rect x="344" y="218" width="138" height="40" rx="4" fill="#f0f4ff" stroke="#ecf0f1" stroke-width="1"/>
  <text x="413" y="243" text-anchor="middle" font-family="Arial, sans-serif" font-size="13" font-weight="bold" fill="#4285f4">50–100+ 🏆</text>
  <rect x="490" y="218" width="138" height="40" rx="4" fill="#f0fdf4" stroke="#ecf0f1" stroke-width="1"/>
  <text x="559" y="243" text-anchor="middle" font-family="Arial, sans-serif" font-size="13" fill="#10a37f">30–80</text>
  <rect x="636" y="218" width="134" height="40" rx="4" fill="#fff8f5" stroke="#ecf0f1" stroke-width="1"/>
  <text x="703" y="243" text-anchor="middle" font-family="Arial, sans-serif" font-size="13" fill="#c05b27">20–60</text>

  <rect x="30" y="266" width="160" height="40" rx="4" fill="#fff" stroke="#ecf0f1" stroke-width="1"/>
  <text x="110" y="291" text-anchor="middle" font-family="Arial, sans-serif" font-size="12" fill="#2c3e50">Free Tier</text>
  <rect x="198" y="266" width="138" height="40" rx="4" fill="#f0fafb" stroke="#ecf0f1" stroke-width="1"/>
  <text x="267" y="291" text-anchor="middle" font-family="Arial, sans-serif" font-size="13" fill="#20808d">5/day free</text>
  <rect x="344" y="266" width="138" height="40" rx="4" fill="#f0f4ff" stroke="#ecf0f1" stroke-width="1"/>
  <text x="413" y="291" text-anchor="middle" font-family="Arial, sans-serif" font-size="13" font-weight="bold" fill="#4285f4">Unlimited free 🏆</text>
  <rect x="490" y="266" width="138" height="40" rx="4" fill="#f0fdf4" stroke="#ecf0f1" stroke-width="1"/>
  <text x="559" y="291" text-anchor="middle" font-family="Arial, sans-serif" font-size="13" fill="#10a37f">Plus only</text>
  <rect x="636" y="266" width="134" height="40" rx="4" fill="#fff8f5" stroke="#ecf0f1" stroke-width="1"/>
  <text x="703" y="291" text-anchor="middle" font-family="Arial, sans-serif" font-size="13" fill="#c05b27">Pro only</text>

  <rect x="30" y="314" width="160" height="40" rx="4" fill="#fff" stroke="#ecf0f1" stroke-width="1"/>
  <text x="110" y="339" text-anchor="middle" font-family="Arial, sans-serif" font-size="12" fill="#2c3e50">Top Strength</text>
  <rect x="198" y="314" width="138" height="40" rx="4" fill="#f0fafb" stroke="#ecf0f1" stroke-width="1"/>
  <text x="267" y="334" text-anchor="middle" font-family="Arial, sans-serif" font-size="11" fill="#20808d">Speed</text>
  <text x="267" y="350" text-anchor="middle" font-family="Arial, sans-serif" font-size="11" fill="#20808d">Clear citations</text>
  <rect x="344" y="314" width="138" height="40" rx="4" fill="#f0f4ff" stroke="#ecf0f1" stroke-width="1"/>
  <text x="413" y="334" text-anchor="middle" font-family="Arial, sans-serif" font-size="11" fill="#4285f4">Wide coverage</text>
  <text x="413" y="350" text-anchor="middle" font-family="Arial, sans-serif" font-size="11" fill="#4285f4">Google integration</text>
  <rect x="490" y="314" width="138" height="40" rx="4" fill="#f0fdf4" stroke="#ecf0f1" stroke-width="1"/>
  <text x="559" y="334" text-anchor="middle" font-family="Arial, sans-serif" font-size="11" fill="#10a37f">Python code</text>
  <text x="559" y="350" text-anchor="middle" font-family="Arial, sans-serif" font-size="11" fill="#10a37f">Data analysis</text>
  <rect x="636" y="314" width="134" height="40" rx="4" fill="#fff8f5" stroke="#ecf0f1" stroke-width="1"/>
  <text x="703" y="334" text-anchor="middle" font-family="Arial, sans-serif" font-size="11" fill="#c05b27">Writing quality</text>
  <text x="703" y="350" text-anchor="middle" font-family="Arial, sans-serif" font-size="11" fill="#c05b27">Doc analysis</text>

  <rect x="30" y="362" width="160" height="40" rx="4" fill="#fff" stroke="#ecf0f1" stroke-width="1"/>
  <text x="110" y="387" text-anchor="middle" font-family="Arial, sans-serif" font-size="12" fill="#2c3e50">Paid Plan</text>
  <rect x="198" y="362" width="138" height="40" rx="4" fill="#f0fafb" stroke="#ecf0f1" stroke-width="1"/>
  <text x="267" y="387" text-anchor="middle" font-family="Arial, sans-serif" font-size="12" fill="#20808d">$20/mo</text>
  <rect x="344" y="362" width="138" height="40" rx="4" fill="#f0f4ff" stroke="#ecf0f1" stroke-width="1"/>
  <text x="413" y="387" text-anchor="middle" font-family="Arial, sans-serif" font-size="12" fill="#4285f4">$19.99/mo</text>
  <rect x="490" y="362" width="138" height="40" rx="4" fill="#f0fdf4" stroke="#ecf0f1" stroke-width="1"/>
  <text x="559" y="387" text-anchor="middle" font-family="Arial, sans-serif" font-size="12" fill="#10a37f">$20/mo</text>
  <rect x="636" y="362" width="134" height="40" rx="4" fill="#fff8f5" stroke="#ecf0f1" stroke-width="1"/>
  <text x="703" y="387" text-anchor="middle" font-family="Arial, sans-serif" font-size="12" fill="#c05b27">$20/mo</text>

  <text x="400" y="430" text-anchor="middle" font-family="Arial, sans-serif" font-size="12" font-weight="bold" fill="#2c3e50">🏆 = Best score in that category</text>
  <text x="400" y="455" text-anchor="middle" font-family="Arial, sans-serif" font-size="11" fill="#95a5a6">Each platform excels in different areas — match tool to task for best results (April 2026)</text>
</svg>
