<svg viewBox="0 0 800 1060" xmlns="http://www.w3.org/2000/svg">
  <rect x="0" y="0" width="800" height="1060" fill="#f8f9fa"/>
  <text x="400" y="38" font-family="Arial, sans-serif" font-size="24" font-weight="700" fill="#2D3748" text-anchor="middle">DEFLATE 블록 타입 개요</text>
  <g transform="translate(42, 74)">
    <text x="0" y="0" font-family="Arial, sans-serif" font-size="16" font-weight="700" fill="#2D3748">범례</text>
    <rect x="0" y="16" width="18" height="18" fill="#4A90D9" stroke="#d7dee8"/>
    <text x="28" y="30" font-family="Arial, sans-serif" font-size="14" fill="#2D3748">헤더 비트</text>
    <rect x="0" y="46" width="18" height="18" fill="#FFD93D" stroke="#d7dee8"/>
    <text x="28" y="60" font-family="Arial, sans-serif" font-size="14" fill="#2D3748">메타데이터 필드</text>
    <rect x="0" y="76" width="18" height="18" fill="#50C878" stroke="#d7dee8"/>
    <text x="28" y="90" font-family="Arial, sans-serif" font-size="14" fill="#2D3748">리터럴 또는 압축 페이로드</text>
  </g>
  <g transform="translate(34, 184)">
    <text x="0" y="0" font-family="Arial, sans-serif" font-size="18" font-weight="700" fill="#2D3748">비압축 블록 (BTYPE = 00)</text>
    <text x="0" y="40" font-family="Courier New, monospace" font-size="14" fill="#2D3748">0x00</text>
    <rect x="58" y="18" width="78" height="42" rx="4" fill="#4A90D9" stroke="#d7dee8"/><text x="97" y="38" font-family="Arial, sans-serif" font-size="13" font-weight="700" fill="#ffffff" text-anchor="middle">BFINAL</text><text x="97" y="52" font-family="Arial, sans-serif" font-size="10" fill="#ffffff" text-anchor="middle">1 비트</text>
    <rect x="142" y="18" width="92" height="42" rx="4" fill="#4A90D9" stroke="#d7dee8"/><text x="188" y="38" font-family="Arial, sans-serif" font-size="13" font-weight="700" fill="#ffffff" text-anchor="middle">BTYPE</text><text x="188" y="52" font-family="Arial, sans-serif" font-size="10" fill="#ffffff" text-anchor="middle">2 비트 = 00</text>
    <rect x="240" y="18" width="120" height="42" rx="4" fill="#E2E8F0" stroke="#d7dee8"/><text x="300" y="38" font-family="Arial, sans-serif" font-size="12" font-weight="700" fill="#2D3748" text-anchor="middle">예약 영역</text><text x="300" y="52" font-family="Arial, sans-serif" font-size="10" fill="#2D3748" text-anchor="middle">패딩 5비트</text>
    <text x="0" y="98" font-family="Courier New, monospace" font-size="14" fill="#2D3748">0x01</text>
    <rect x="58" y="74" width="220" height="46" rx="4" fill="#FFD93D" stroke="#d7dee8"/><text x="168" y="103" font-family="Arial, sans-serif" font-size="16" fill="#2D3748" text-anchor="middle">LEN (2바이트)</text>
    <text x="0" y="148" font-family="Courier New, monospace" font-size="14" fill="#2D3748">0x03</text>
    <rect x="58" y="124" width="280" height="46" rx="4" fill="#FFD93D" stroke="#d7dee8"/><text x="198" y="145" font-family="Arial, sans-serif" font-size="14" fill="#2D3748" text-anchor="middle">NLEN (2바이트)</text><text x="198" y="160" font-family="Arial, sans-serif" font-size="10" fill="#2D3748" text-anchor="middle">LEN의 1의 보수</text>
    <text x="0" y="210" font-family="Courier New, monospace" font-size="14" fill="#2D3748">0x05</text>
    <rect x="58" y="184" width="610" height="62" rx="4" fill="#50C878" stroke="#d7dee8"/><text x="363" y="221" font-family="Arial, sans-serif" font-size="16" fill="#2D3748" text-anchor="middle">리터럴 데이터 (LEN 바이트)</text>
  </g>
  <g transform="translate(34, 468)">
    <text x="0" y="0" font-family="Arial, sans-serif" font-size="18" font-weight="700" fill="#2D3748">고정 허프만 블록 (BTYPE = 01)</text>
    <text x="0" y="40" font-family="Courier New, monospace" font-size="14" fill="#2D3748">0x00</text>
    <rect x="58" y="18" width="78" height="42" rx="4" fill="#4A90D9" stroke="#d7dee8"/><text x="97" y="38" font-family="Arial, sans-serif" font-size="13" font-weight="700" fill="#ffffff" text-anchor="middle">BFINAL</text><text x="97" y="52" font-family="Arial, sans-serif" font-size="10" fill="#ffffff" text-anchor="middle">1 비트</text>
    <rect x="142" y="18" width="92" height="42" rx="4" fill="#4A90D9" stroke="#d7dee8"/><text x="188" y="38" font-family="Arial, sans-serif" font-size="13" font-weight="700" fill="#ffffff" text-anchor="middle">BTYPE</text><text x="188" y="52" font-family="Arial, sans-serif" font-size="10" fill="#ffffff" text-anchor="middle">2 비트 = 01</text>
    <rect x="240" y="18" width="120" height="42" rx="4" fill="#E2E8F0" stroke="#d7dee8"/><text x="300" y="38" font-family="Arial, sans-serif" font-size="12" font-weight="700" fill="#2D3748" text-anchor="middle">예약 영역</text><text x="300" y="52" font-family="Arial, sans-serif" font-size="10" fill="#2D3748" text-anchor="middle">패딩 5비트</text>
    <text x="0" y="106" font-family="Courier New, monospace" font-size="14" fill="#2D3748">0x01</text>
    <rect x="58" y="78" width="610" height="64" rx="4" fill="#50C878" stroke="#d7dee8"/><text x="363" y="116" font-family="Arial, sans-serif" font-size="16" fill="#2D3748" text-anchor="middle">압축 데이터 (고정 허프만 코드)</text>
  </g>
  <g transform="translate(34, 672)">
    <text x="0" y="0" font-family="Arial, sans-serif" font-size="18" font-weight="700" fill="#2D3748">동적 허프만 블록 (BTYPE = 10)</text>
    <text x="0" y="40" font-family="Courier New, monospace" font-size="14" fill="#2D3748">0x00</text>
    <rect x="58" y="18" width="78" height="42" rx="4" fill="#4A90D9" stroke="#d7dee8"/><text x="97" y="38" font-family="Arial, sans-serif" font-size="13" font-weight="700" fill="#ffffff" text-anchor="middle">BFINAL</text><text x="97" y="52" font-family="Arial, sans-serif" font-size="10" fill="#ffffff" text-anchor="middle">1 비트</text>
    <rect x="142" y="18" width="92" height="42" rx="4" fill="#4A90D9" stroke="#d7dee8"/><text x="188" y="38" font-family="Arial, sans-serif" font-size="13" font-weight="700" fill="#ffffff" text-anchor="middle">BTYPE</text><text x="188" y="52" font-family="Arial, sans-serif" font-size="10" fill="#ffffff" text-anchor="middle">2 비트 = 10</text>
    <text x="58" y="94" font-family="Arial, sans-serif" font-size="12" fill="#2D3748">이후에는 비트 정렬된 헤더 필드가 이어집니다.</text>
    <text x="0" y="132" font-family="Courier New, monospace" font-size="14" fill="#2D3748">0x00+</text>
    <rect x="58" y="110" width="72" height="42" rx="4" fill="#FFD93D" stroke="#d7dee8"/><text x="94" y="130" font-family="Arial, sans-serif" font-size="12" font-weight="700" fill="#2D3748" text-anchor="middle">HLIT</text><text x="94" y="144" font-family="Arial, sans-serif" font-size="10" fill="#2D3748" text-anchor="middle">5 비트</text>
    <rect x="140" y="110" width="72" height="42" rx="4" fill="#FFD93D" stroke="#d7dee8"/><text x="176" y="130" font-family="Arial, sans-serif" font-size="12" font-weight="700" fill="#2D3748" text-anchor="middle">HDIST</text><text x="176" y="144" font-family="Arial, sans-serif" font-size="10" fill="#2D3748" text-anchor="middle">5 비트</text>
    <rect x="222" y="110" width="72" height="42" rx="4" fill="#FFD93D" stroke="#d7dee8"/><text x="258" y="130" font-family="Arial, sans-serif" font-size="12" font-weight="700" fill="#2D3748" text-anchor="middle">HCLEN</text><text x="258" y="144" font-family="Arial, sans-serif" font-size="10" fill="#2D3748" text-anchor="middle">4 비트</text>
    <text x="0" y="192" font-family="Courier New, monospace" font-size="14" fill="#2D3748">var</text>
    <rect x="58" y="168" width="610" height="46" rx="4" fill="#FFD93D" stroke="#d7dee8"/><text x="363" y="196" font-family="Arial, sans-serif" font-size="14" fill="#2D3748" text-anchor="middle">코드 길이 알파벳 길이들 (HCLEN x 3비트)</text>
    <text x="0" y="248" font-family="Courier New, monospace" font-size="14" fill="#2D3748">var</text>
    <rect x="58" y="224" width="610" height="46" rx="4" fill="#FFD93D" stroke="#d7dee8"/><text x="363" y="252" font-family="Arial, sans-serif" font-size="14" fill="#2D3748" text-anchor="middle">리터럴/길이 허프만 테이블 (HLIT 코드)</text>
    <text x="0" y="304" font-family="Courier New, monospace" font-size="14" fill="#2D3748">var</text>
    <rect x="58" y="280" width="610" height="46" rx="4" fill="#FFD93D" stroke="#d7dee8"/><text x="363" y="308" font-family="Arial, sans-serif" font-size="14" fill="#2D3748" text-anchor="middle">거리 허프만 테이블 (HDIST 코드)</text>
    <text x="0" y="362" font-family="Courier New, monospace" font-size="14" fill="#2D3748">var</text>
    <rect x="58" y="336" width="610" height="64" rx="4" fill="#50C878" stroke="#d7dee8"/><text x="363" y="374" font-family="Arial, sans-serif" font-size="16" fill="#2D3748" text-anchor="middle">압축 데이터 (동적 허프만 코드)</text>
  </g>
</svg>
