<svg xmlns="http://www.w3.org/2000/svg" viewBox="0 0 800 500">
  <rect width="800" height="500" fill="#f8f9fa"/>
  <text x="400" y="36" text-anchor="middle" font-family="Arial, sans-serif" font-size="20" font-weight="bold" fill="#2c3e50">Llama 4 Benchmark Performance</text>
  <text x="400" y="58" text-anchor="middle" font-family="Arial, sans-serif" font-size="13" fill="#7f8c8d">Comparison against leading AI models (April 2026)</text>

  <line x1="80" y1="80" x2="80" y2="420" stroke="#bdc3c7" stroke-width="1.5"/>
  <line x1="80" y1="420" x2="760" y2="420" stroke="#bdc3c7" stroke-width="1.5"/>

  <text x="70" y="424" text-anchor="end" font-family="Arial, sans-serif" font-size="11" fill="#7f8c8d">0</text>
  <text x="70" y="354" text-anchor="end" font-family="Arial, sans-serif" font-size="11" fill="#7f8c8d">20</text>
  <text x="70" y="284" text-anchor="end" font-family="Arial, sans-serif" font-size="11" fill="#7f8c8d">40</text>
  <text x="70" y="214" text-anchor="end" font-family="Arial, sans-serif" font-size="11" fill="#7f8c8d">60</text>
  <text x="70" y="144" text-anchor="end" font-family="Arial, sans-serif" font-size="11" fill="#7f8c8d">80</text>
  <text x="70" y="84" text-anchor="end" font-family="Arial, sans-serif" font-size="11" fill="#7f8c8d">100</text>

  <line x1="80" y1="354" x2="760" y2="354" stroke="#ecf0f1" stroke-width="1"/>
  <line x1="80" y1="284" x2="760" y2="284" stroke="#ecf0f1" stroke-width="1"/>
  <line x1="80" y1="214" x2="760" y2="214" stroke="#ecf0f1" stroke-width="1"/>
  <line x1="80" y1="144" x2="760" y2="144" stroke="#ecf0f1" stroke-width="1"/>

  <!-- MMLU Group -->
  <text x="200" y="445" text-anchor="middle" font-family="Arial, sans-serif" font-size="12" font-weight="bold" fill="#2c3e50">MMLU</text>
  <rect x="100" y="150" width="30" height="270" rx="3" fill="#3498db"/>
  <text x="115" y="146" text-anchor="middle" font-family="Arial, sans-serif" font-size="9" fill="#3498db">79.6</text>
  <rect x="138" y="113" width="30" height="307" rx="3" fill="#9b59b6"/>
  <text x="153" y="109" text-anchor="middle" font-family="Arial, sans-serif" font-size="9" fill="#9b59b6">85.5</text>
  <rect x="176" y="106" width="30" height="314" rx="3" fill="#f39c12"/>
  <text x="191" y="102" text-anchor="middle" font-family="Arial, sans-serif" font-size="9" fill="#f39c12">87.2</text>
  <rect x="214" y="102" width="30" height="318" rx="3" fill="#e74c3c"/>
  <text x="229" y="98" text-anchor="middle" font-family="Arial, sans-serif" font-size="9" fill="#e74c3c">88.3</text>
  <rect x="252" y="121" width="30" height="299" rx="3" fill="#1abc9c"/>
  <text x="267" y="117" text-anchor="middle" font-family="Arial, sans-serif" font-size="9" fill="#1abc9c">83.1</text>

  <!-- HumanEval Group -->
  <text x="380" y="445" text-anchor="middle" font-family="Arial, sans-serif" font-size="12" font-weight="bold" fill="#2c3e50">HumanEval</text>
  <rect x="300" y="159" width="30" height="261" rx="3" fill="#3498db"/>
  <text x="315" y="155" text-anchor="middle" font-family="Arial, sans-serif" font-size="9" fill="#3498db">72.4</text>
  <rect x="338" y="103" width="30" height="317" rx="3" fill="#9b59b6"/>
  <text x="353" y="99" text-anchor="middle" font-family="Arial, sans-serif" font-size="9" fill="#9b59b6">88.0</text>
  <rect x="376" y="96" width="30" height="324" rx="3" fill="#f39c12"/>
  <text x="391" y="92" text-anchor="middle" font-family="Arial, sans-serif" font-size="9" fill="#f39c12">90.2</text>
  <rect x="414" y="89" width="30" height="331" rx="3" fill="#e74c3c"/>
  <text x="429" y="85" text-anchor="middle" font-family="Arial, sans-serif" font-size="9" fill="#e74c3c">92.0</text>
  <rect x="452" y="137" width="30" height="283" rx="3" fill="#1abc9c"/>
  <text x="467" y="133" text-anchor="middle" font-family="Arial, sans-serif" font-size="9" fill="#1abc9c">78.9</text>

  <!-- MATH Group -->
  <text x="560" y="445" text-anchor="middle" font-family="Arial, sans-serif" font-size="12" font-weight="bold" fill="#2c3e50">MATH</text>
  <rect x="500" y="178" width="30" height="242" rx="3" fill="#3498db"/>
  <text x="515" y="174" text-anchor="middle" font-family="Arial, sans-serif" font-size="9" fill="#3498db">67.3</text>
  <rect x="538" y="130" width="30" height="290" rx="3" fill="#9b59b6"/>
  <text x="553" y="126" text-anchor="middle" font-family="Arial, sans-serif" font-size="9" fill="#9b59b6">80.5</text>
  <rect x="576" y="146" width="30" height="274" rx="3" fill="#f39c12"/>
  <text x="591" y="142" text-anchor="middle" font-family="Arial, sans-serif" font-size="9" fill="#f39c12">76.6</text>
  <rect x="614" y="165" width="30" height="255" rx="3" fill="#e74c3c"/>
  <text x="629" y="161" text-anchor="middle" font-family="Arial, sans-serif" font-size="9" fill="#e74c3c">71.1</text>
  <rect x="652" y="115" width="30" height="305" rx="3" fill="#1abc9c"/>
  <text x="667" y="111" text-anchor="middle" font-family="Arial, sans-serif" font-size="9" fill="#1abc9c">85.0</text>

  <!-- Legend -->
  <rect x="80" y="458" width="14" height="14" rx="2" fill="#3498db"/>
  <text x="98" y="470" font-family="Arial, sans-serif" font-size="11" fill="#2c3e50">Llama 4 Scout</text>
  <rect x="200" y="458" width="14" height="14" rx="2" fill="#9b59b6"/>
  <text x="218" y="470" font-family="Arial, sans-serif" font-size="11" fill="#2c3e50">Llama 4 Maverick</text>
  <rect x="340" y="458" width="14" height="14" rx="2" fill="#f39c12"/>
  <text x="358" y="470" font-family="Arial, sans-serif" font-size="11" fill="#2c3e50">GPT-4o</text>
  <rect x="410" y="458" width="14" height="14" rx="2" fill="#e74c3c"/>
  <text x="428" y="470" font-family="Arial, sans-serif" font-size="11" fill="#2c3e50">Claude 3.5 Sonnet</text>
  <rect x="560" y="458" width="14" height="14" rx="2" fill="#1abc9c"/>
  <text x="578" y="470" font-family="Arial, sans-serif" font-size="11" fill="#2c3e50">Gemini 2.0 Flash</text>
</svg>
